<?xml version="1.0" encoding="UTF-8"?>
<svg width="240px" height="116px" viewBox="0 0 240 116" version="1.1" xmlns="http://www.w3.org/2000/svg" xmlns:xlink="http://www.w3.org/1999/xlink">
    <!-- Generator: Sketch 46.2 (44496) - http://www.bohemiancoding.com/sketch -->
    <title>logo</title>
    <desc>Created with Sketch.</desc>
    <defs></defs>
    <g id="Page-1" stroke="none" stroke-width="1" fill="none" fill-rule="evenodd">
        <g id="领取积分" transform="translate(-255.000000, -1158.000000)" fill="#E4E4E4">
            <g id="logo" transform="translate(255.000000, 1158.000000)">
                <g id="Page-1">
                    <g id="Group-3" transform="translate(84.705882, 98.933108)">
                        <path d="M1.30094118,8.9117 L0.196627451,8.71653784 C0.409960784,7.33080811 0.605254902,5.78910541 0.780156863,4.09613243 L1.88760784,4.22702432 C1.84368627,4.70513243 1.75662745,5.48656486 1.62878431,6.56975405 C1.49623529,7.65529459 1.38643137,8.43437568 1.30094118,8.9117 L1.30094118,8.9117 Z M2.34172549,16.3952676 L2.34172549,0.910051351 L3.96996078,0.910051351 L3.96996078,3.44715946 L4.09937255,3.2519973 C4.62094118,3.6869973 5.14172549,4.14159189 5.6625098,4.61734865 C6.92133333,3.70659189 7.98564706,2.45018649 8.85309804,0.844997297 L10.2225098,1.68913243 C9.43819608,2.99178108 8.48290196,4.16197027 7.35505882,5.2044027 L13.8664314,5.2044027 C12.7809412,4.33675405 11.8264314,3.12267297 11.0013333,1.56137568 L12.2397647,0.779159459 C13.2366275,2.64456486 14.5378039,3.96680811 16.1472157,4.74902432 C16.1009412,4.87913243 16.0366275,5.09545676 15.9503529,5.39956486 C15.7762353,5.83221351 15.6468235,6.18021351 15.5589804,6.43964595 C15.255451,6.30953784 14.9738824,6.13710541 14.7134902,5.91842973 L14.7134902,10.7347811 L12.7589804,10.7347811 L12.7589804,13.9224297 C12.7589804,14.3558622 12.9558431,14.5518081 13.3456471,14.5079162 L13.8013333,14.5079162 C14.2781961,14.5518081 14.560549,14.3127541 14.6483922,13.7915378 C14.735451,13.2718892 14.7981961,12.6644568 14.8421176,11.9700243 C15.2350588,12.1871324 15.6672157,12.3611324 16.1472157,12.4912405 C16.0601569,13.2287811 15.9503529,13.9004838 15.8193725,14.5079162 C15.6468235,15.5503486 15.0162353,16.0472676 13.9338824,16.0033757 L12.9558431,16.0033757 C11.7401569,16.0033757 11.1307451,15.4845108 11.1307451,14.4420784 L11.1307451,10.7347811 L9.7652549,10.7347811 C9.7652549,10.8648892 9.7425098,11.0169432 9.70015686,11.1893757 C9.70015686,11.4503757 9.67819608,11.6251595 9.63584314,11.7090243 C9.59113725,13.5305378 8.39584314,15.1145649 6.05388235,16.4595378 C5.70643137,16.1131054 5.33701961,15.7008351 4.94486275,15.2242946 C6.98564706,14.2688622 8.02878431,13.0547811 8.07270588,11.5812676 L8.07270588,11.2544297 C8.1134902,11.0381054 8.13858824,10.8648892 8.13858824,10.7347811 L6.57388235,10.7347811 L6.57388235,5.91842973 C6.31505882,6.09321351 6.05388235,6.28759189 5.7934902,6.5047 C5.75035294,6.28759189 5.62015686,5.96388919 5.40368627,5.53045676 L5.07741176,6.11515946 C4.72839216,5.81026757 4.36054902,5.46461892 3.96996078,5.07351081 L3.96996078,16.3952676 L2.34172549,16.3952676 Z M8.13858824,9.30359189 L13.0852549,9.30359189 L13.0852549,6.69986216 L8.13858824,6.69986216 L8.13858824,9.30359189 Z" id="Fill-1"></path>
                    </g>
                    <path d="M105.202588,114.983041 L105.202588,109.070176 C104.815137,109.584338 104.408078,110.035014 103.978275,110.420635 C103.93749,110.16277 103.826902,109.799878 103.658275,109.328824 C103.569647,109.070176 103.506902,108.878932 103.464549,108.750392 C104.751608,107.379554 105.758667,105.815905 106.488078,104.06023 L107.774353,104.894176 C107.427686,105.623095 107.065333,106.308122 106.679451,106.950824 L106.679451,114.983041 L105.202588,114.983041 Z M104.299059,105.152041 C104.214353,104.937284 104.084941,104.615932 103.914745,104.187203 C103.786902,103.887797 103.700627,103.673824 103.658275,103.543716 C104.85749,102.387635 105.82298,101.10223 106.551608,99.6890676 L107.902196,100.588851 C106.915529,102.302203 105.716314,103.823527 104.299059,105.152041 L104.299059,105.152041 Z M108.16102,104.380797 C107.858275,104.081392 107.538275,103.759257 107.196314,103.415959 C108.310039,102.387635 109.189255,101.145338 109.830824,99.6890676 L111.375137,99.9453649 C111.331216,100.032365 111.288863,100.117014 111.24651,100.20323 C111.159451,100.41877 111.031608,100.653122 110.859843,100.910203 L113.882588,100.910203 L113.882588,102.132122 L113.047294,103.288203 L114.461412,103.288203 L114.461412,109.13523 L108.16102,109.13523 L108.16102,104.380797 Z M107.579059,111.448959 L107.579059,110.16277 L110.538275,110.16277 L110.538275,108.936149 L112.018275,108.936149 L111.953961,110.16277 L115.103765,110.16277 L115.103765,111.448959 L111.761804,111.448959 L111.761804,111.640986 C112.959451,112.327581 113.90298,112.840959 114.588471,113.182689 L113.819843,114.468878 C112.789255,113.739176 111.910039,113.182689 111.179843,112.798635 C110.623765,113.525986 109.596314,114.190635 108.094353,114.791014 C108.050431,114.704797 107.96651,114.575473 107.837098,114.405392 C107.579059,113.975878 107.364941,113.656095 107.196314,113.441338 C108.993961,112.971068 110.024549,112.307203 110.281804,111.448959 L107.579059,111.448959 Z M112.339843,102.132122 L110.152392,102.132122 C109.895922,102.516176 109.596314,102.901797 109.252784,103.288203 L111.50298,103.288203 L112.339843,102.132122 Z M109.444941,105.666203 L110.797098,105.666203 L110.797098,104.444284 L109.444941,104.444284 L109.444941,105.666203 Z M109.444941,107.914095 L110.797098,107.914095 L110.797098,106.693743 L109.444941,106.693743 L109.444941,107.914095 Z M111.888078,105.666203 L113.30298,105.666203 L113.30298,104.444284 L111.888078,104.444284 L111.888078,105.666203 Z M111.888863,107.914095 L113.303765,107.914095 L113.303765,106.693743 L111.888863,106.693743 L111.888863,107.914095 Z M115.04102,106.886554 L115.04102,105.343284 L119.219059,105.343284 L119.219059,106.886554 L118.060627,106.886554 L118.060627,113.119986 C118.104549,114.233743 117.524941,114.832554 116.327294,114.919554 L114.975137,114.919554 C114.932,114.704797 114.847294,114.298014 114.717882,113.698419 C114.631608,113.525986 114.588471,113.397446 114.588471,113.312797 L115.68102,113.312797 C116.284157,113.355122 116.561804,113.119986 116.519451,112.605041 L116.519451,106.886554 L115.04102,106.886554 Z M115.36102,102.259095 L118.899059,102.259095 L118.899059,100.717392 L115.36102,100.717392 L115.36102,102.259095 Z" id="Fill-4"></path>
                    <path d="M135.105725,114.919554 C134.718275,114.747122 134.14102,114.511203 133.367686,114.211797 C131.310431,113.441338 129.745725,112.862905 128.674353,112.477284 L128.674353,113.954716 L123.301804,115.175851 L123.336314,105.022716 C123.122196,105.152041 122.799059,105.302527 122.372392,105.471824 C122.071216,105.600365 121.858667,105.688149 121.727686,105.730473 C121.514353,105.258635 121.235922,104.764851 120.893961,104.251473 C124.496314,103.009176 126.978667,101.447095 128.351216,99.560527 L130.409255,99.6890676 L129.960627,100.20323 C131.545725,101.831149 133.795922,103.073446 136.712784,103.930122 C136.497098,104.359635 136.26102,104.873797 136.005333,105.471824 C135.747294,105.387959 135.383373,105.258635 134.910431,105.086986 C134.610824,104.957662 134.374745,104.873797 134.20298,104.829905 L134.20298,110.099284 L135.170039,111.127608 C134.352,111.598662 133.519059,112.026608 132.66102,112.413014 C133.174745,112.626986 133.947294,112.884851 134.974745,113.182689 C135.362196,113.312797 135.660235,113.419392 135.87749,113.505608 L135.105725,114.919554 Z M130.02651,104.122932 L129.315922,104.315743 L133.112,104.315743 C131.482196,103.503743 130.109647,102.495014 128.995922,101.295041 C127.881412,102.408797 126.488471,103.415959 124.816314,104.315743 L128.413961,104.315743 C128.373176,104.059446 128.245333,103.673824 128.031216,103.159662 C127.944941,102.944905 127.881412,102.795986 127.83749,102.708986 L129.380235,102.451905 C129.68298,103.052284 129.895529,103.60877 130.02651,104.122932 L130.02651,104.122932 Z M125.010039,106.758014 L132.596706,106.758014 L132.596706,105.535311 L125.010039,105.535311 L125.010039,106.758014 Z M125.010039,109.134446 L132.596706,109.134446 L132.596706,107.913311 L125.010039,107.913311 L125.010039,109.134446 Z M125.010039,113.182689 C125.566118,113.141932 128.413961,112.521176 128.674353,112.477284 C128.459451,112.391068 128.116706,112.263311 127.642196,112.090878 C127.216314,111.921581 126.874353,111.793041 126.616314,111.706824 L127.322196,110.549176 C127.793569,110.6785 128.482196,110.912851 129.380235,111.256932 C130.02651,111.470122 130.516706,111.640986 130.861804,111.771095 C131.545725,111.470122 132.38102,111.02023 133.367686,110.420635 L125.010039,110.420635 L125.010039,113.182689 Z" id="Fill-6"></path>
                    <path d="M140.900706,109.393251 L140.900706,104.380954 C140.385412,104.894332 139.851294,105.407711 139.293647,105.922657 C139.165804,105.32463 138.994039,104.743846 138.779137,104.187359 C140.279529,102.945062 141.436392,101.447251 142.252863,99.6892243 L143.989333,99.9455216 C143.90149,100.161846 143.729725,100.4589 143.474039,100.846089 C143.345412,101.06163 143.237961,101.230927 143.152471,101.360251 L147.01051,101.360251 C146.966588,101.274819 146.882667,101.145495 146.752471,100.97463 C146.66698,100.760657 146.474824,100.396197 146.175216,99.8812514 L147.910118,99.6257378 C148.039529,99.7973865 148.209725,100.074846 148.425412,100.4589 C148.638745,100.803765 148.788549,101.081224 148.876392,101.295197 L148.488941,101.360251 L153.634039,101.360251 L153.634039,102.516332 L148.296784,102.516332 L148.296784,103.543873 L152.991686,103.543873 L152.991686,104.638035 L148.296784,104.638035 L148.296784,105.600522 L152.991686,105.600522 L152.991686,106.6939 L148.296784,106.6939 L148.296784,107.723008 L153.699137,107.723008 L153.699137,108.879089 L142.571294,108.879089 L142.571294,109.393251 L140.900706,109.393251 Z M139.165804,111.449116 L139.165804,110.099441 L145.789333,110.099441 L145.789333,109.264711 L147.46149,109.264711 L147.46149,110.099441 L154.083451,110.099441 L154.083451,111.449116 L148.616784,111.449116 C149.989333,112.391224 151.939922,113.034711 154.467765,113.376441 C154.42698,113.461873 154.339922,113.612359 154.212863,113.827116 C153.955608,114.212738 153.763451,114.511359 153.634039,114.726116 C150.934431,114.125738 148.876392,113.225954 147.46149,112.026765 L147.46149,115.047468 L145.789333,115.047468 L145.789333,112.026765 C144.416784,113.142089 142.358745,114.083414 139.614431,114.856224 C139.357961,114.425143 139.078745,113.954873 138.779137,113.441495 C141.436392,113.013549 143.386196,112.3489 144.630902,111.449116 L139.165804,111.449116 Z M142.571294,103.543873 L146.623059,103.543873 L146.623059,102.516332 L142.571294,102.516332 L142.571294,103.543873 Z M142.571294,105.600522 L146.623059,105.600522 L146.623059,104.638035 L142.571294,104.638035 L142.571294,105.600522 Z M142.571294,107.723008 L146.623059,107.723008 L146.623059,106.6939 L142.571294,106.6939 L142.571294,107.723008 Z" id="Fill-8"></path>
                    <path d="M127.912078,6.61842703 C132.39051,2.34523784 140.231294,-0.861221622 141.352078,0.207075676 C142.472078,1.27615676 139.111294,8.75423784 134.629725,13.0289946 C130.15051,17.3037514 122.308157,20.509427 121.189725,19.4403459 C120.067373,18.3712649 123.428941,10.8939676 127.912078,6.61842703" id="Fill-10"></path>
                    <path d="M121.206353,28.5356865 C121.206353,31.6355514 123.828314,34.1499297 127.058902,34.1499297 C130.290275,34.1499297 132.908314,31.6355514 132.908314,28.5356865 C132.908314,25.4358216 130.290275,22.9230108 127.058902,22.9230108 C123.828314,22.9230108 121.206353,25.4358216 121.206353,28.5356865" id="Fill-12"></path>
                    <path d="M111.458745,6.61842703 C106.980314,2.34523784 99.1395294,-0.861221622 98.0179608,0.207075676 C96.8987451,1.27615676 100.257961,8.75423784 104.741098,13.0289946 C109.221882,17.3037514 117.062667,20.509427 118.178745,19.4403459 C119.301882,18.3712649 115.941882,10.8939676 111.458745,6.61842703" id="Fill-14"></path>
                    <path d="M118.163294,28.5356865 C118.163294,31.6355514 115.542902,34.1499297 112.312314,34.1499297 C109.080157,34.1499297 106.459765,31.6355514 106.459765,28.5356865 C106.459765,25.4358216 109.080157,22.9230108 112.312314,22.9230108 C115.542902,22.9230108 118.163294,25.4358216 118.163294,28.5356865" id="Fill-16"></path>
                    <path d="M128.460471,39.7627622 C128.460471,36.6621135 131.081647,34.1493027 134.312235,34.1493027 C137.545961,34.1493027 140.166353,36.6621135 140.166353,39.7627622 C140.166353,42.862627 137.545961,45.3762216 134.312235,45.3762216 C131.081647,45.3762216 128.460471,42.862627 128.460471,39.7627622" id="Fill-18"></path>
                    <path d="M121.206353,50.9895243 C121.206353,47.8904432 123.828314,45.3760649 127.058902,45.3760649 C130.290275,45.3760649 132.908314,47.8904432 132.908314,50.9895243 C132.908314,54.090173 130.290275,56.6037676 127.058902,56.6037676 C123.828314,56.6037676 121.206353,54.090173 121.206353,50.9895243" id="Fill-20"></path>
                    <path d="M118.163294,50.9895243 C118.163294,47.8904432 115.542902,45.3760649 112.312314,45.3760649 C109.080157,45.3760649 106.459765,47.8904432 106.459765,50.9895243 C106.459765,54.090173 109.080157,56.6037676 112.312314,56.6037676 C115.542902,56.6037676 118.163294,54.090173 118.163294,50.9895243" id="Fill-22"></path>
                    <path d="M99.4396863,39.7627622 C99.4396863,36.6621135 102.060078,34.1493027 105.292235,34.1493027 C108.523608,34.1493027 111.141647,36.6621135 111.141647,39.7627622 C111.141647,42.862627 108.523608,45.3762216 105.292235,45.3762216 C102.060078,45.3762216 99.4396863,42.862627 99.4396863,39.7627622" id="Fill-24"></path>
                    <path d="M113.950667,39.7627622 C113.950667,36.6621135 116.570275,34.1493027 119.802431,34.1493027 C123.033804,34.1493027 125.653412,36.6621135 125.653412,39.7627622 C125.653412,42.862627 123.033804,45.3762216 119.802431,45.3762216 C116.570275,45.3762216 113.950667,42.862627 113.950667,39.7627622" id="Fill-26"></path>
                    <path d="M0,69.8642135 C0,69.6016459 0.236078431,69.365727 0.498823529,69.365727 L2.93647059,69.365727 C3.22509804,69.365727 3.43607843,69.6016459 3.43607843,69.8642135 L3.43607843,76.8077541 L11.9843137,76.8077541 L11.9843137,69.8642135 C11.9843137,69.6016459 12.1937255,69.365727 12.4823529,69.365727 L14.894902,69.365727 C15.1568627,69.365727 15.3937255,69.6016459 15.3937255,69.8642135 L15.3937255,87.2109162 C15.3937255,87.4734838 15.1568627,87.7094027 14.894902,87.7094027 L12.4823529,87.7094027 C12.1937255,87.7094027 11.9843137,87.4734838 11.9843137,87.2109162 L11.9843137,79.9789432 L3.43607843,79.9789432 L3.43607843,87.2109162 C3.43607843,87.4734838 3.22509804,87.7094027 2.93647059,87.7094027 L0.498823529,87.7094027 C0.236078431,87.7094027 0,87.4734838 0,87.2109162 L0,69.8642135 Z" id="Fill-28"></path>
                    <path d="M19.3558431,69.8642135 C19.3558431,69.6016459 19.5919216,69.365727 19.853098,69.365727 L22.3456471,69.365727 C22.6327059,69.365727 22.8421176,69.6016459 22.8421176,69.8642135 L22.8421176,80.581673 C22.8421176,82.8084027 24.3644706,84.5648622 26.6444706,84.5648622 C28.9260392,84.5648622 30.4734902,82.8084027 30.4734902,80.6083216 L30.4734902,69.8642135 C30.4734902,69.6016459 30.6836863,69.365727 30.9715294,69.365727 L33.4632941,69.365727 C33.7260392,69.365727 33.960549,69.6016459 33.960549,69.8642135 L33.960549,80.7650784 C33.960549,84.7474838 30.788,87.9719703 26.6444706,87.9719703 C22.5276078,87.9719703 19.3558431,84.7474838 19.3558431,80.7650784 L19.3558431,69.8642135 Z" id="Fill-30"></path>
                    <path d="M38.1847059,69.5756243 C38.1847059,69.3138405 38.4215686,69.1045703 38.6843137,69.1045703 L39.34,69.1045703 L50.247451,80.6865432 L50.2756863,80.6865432 L50.2756863,69.8640568 C50.2756863,69.6014892 50.4835294,69.3663541 50.7721569,69.3663541 L53.1847059,69.3663541 C53.447451,69.3663541 53.6835294,69.6014892 53.6835294,69.8640568 L53.6835294,87.4999757 C53.6835294,87.7617595 53.447451,87.9718135 53.1847059,87.9718135 L52.554902,87.9718135 L41.594902,75.9430838 L41.5682353,75.9430838 L41.5682353,87.2107595 C41.5682353,87.473327 41.3588235,87.7092459 41.0701961,87.7092459 L38.6843137,87.7092459 C38.4215686,87.7092459 38.1847059,87.473327 38.1847059,87.2107595 L38.1847059,69.5756243 Z" id="Fill-32"></path>
                    <path d="M60.6185098,72.510973 L56.6067451,72.510973 C56.3196863,72.510973 56.1087059,72.2750541 56.1087059,72.0124865 L56.1087059,69.8641351 C56.1087059,69.6015676 56.3196863,69.3656486 56.6067451,69.3656486 L68.0663529,69.3656486 C68.3557647,69.3656486 68.5643922,69.6015676 68.5643922,69.8641351 L68.5643922,72.0124865 C68.5643922,72.2750541 68.3557647,72.510973 68.0663529,72.510973 L64.0545882,72.510973 L64.0545882,87.2108378 C64.0545882,87.4734054 63.8177255,87.7093243 63.5549804,87.7093243 L61.1173333,87.7093243 C60.8545882,87.7093243 60.6185098,87.4734054 60.6185098,87.2108378 L60.6185098,72.510973 Z" id="Fill-34"></path>
                    <path d="M70.972,69.8642135 C70.972,69.6016459 71.1837647,69.365727 71.4723922,69.365727 L82.1437647,69.365727 C82.4331765,69.365727 82.6410196,69.6016459 82.6410196,69.8642135 L82.6410196,72.0125649 C82.6410196,72.2751324 82.4331765,72.5110514 82.1437647,72.5110514 L74.3821961,72.5110514 L74.3821961,76.8077541 L80.8590588,76.8077541 C81.1218039,76.8077541 81.357098,77.043673 81.357098,77.3062405 L81.357098,79.4812405 C81.357098,79.769673 81.1218039,79.9789432 80.8590588,79.9789432 L74.3821961,79.9789432 L74.3821961,84.5648622 L82.1437647,84.5648622 C82.4331765,84.5648622 82.6410196,84.8015649 82.6410196,85.0625649 L82.6410196,87.2109162 C82.6410196,87.4734838 82.4331765,87.7094027 82.1437647,87.7094027 L71.4723922,87.7094027 C71.1837647,87.7094027 70.972,87.4734838 70.972,87.2109162 L70.972,69.8642135 Z" id="Fill-36"></path>
                    <path d="M86.2875294,69.8642135 C86.2875294,69.6016459 86.4977255,69.365727 86.7863529,69.365727 L94.2867451,69.365727 C97.4326275,69.365727 100.002039,71.881673 100.002039,74.9995649 C100.002039,77.4104838 98.4028235,79.3769973 96.1212549,80.2932405 L99.7141961,86.9491324 C99.8969412,87.2900784 99.7141961,87.7094027 99.2694902,87.7094027 L96.5157647,87.7094027 C96.2796863,87.7094027 96.1479216,87.577727 96.0953725,87.4734838 L92.6083137,80.5299432 L89.6977255,80.5299432 L89.6977255,87.2109162 C89.6977255,87.4734838 89.4608627,87.7094027 89.198902,87.7094027 L86.7863529,87.7094027 C86.4977255,87.7094027 86.2875294,87.4734838 86.2875294,87.2109162 L86.2875294,69.8642135 Z M93.9981176,77.7263486 C95.3879216,77.7263486 96.5941961,76.5201054 96.5941961,75.0520784 C96.5941961,73.6639973 95.3879216,72.5110514 93.9981176,72.5110514 L89.7236078,72.5110514 L89.7236078,77.7263486 L93.9981176,77.7263486 Z" id="Fill-38"></path>
                    <path d="M117.661647,69.1041784 C120.022431,69.1041784 122.276549,70.0204216 124.05851,71.5417459 C124.270275,71.7502324 124.296157,72.0645297 124.086745,72.2753676 L122.461647,73.9777459 C122.251451,74.1878 122.013804,74.1878 121.779294,73.9777459 C120.651451,72.9823405 119.261647,72.4579892 117.81851,72.4579892 C114.541647,72.4579892 111.944784,75.2623676 111.944784,78.5378 C111.944784,81.7865838 114.541647,84.5392324 117.845961,84.5392324 C119.313412,84.5392324 120.442039,84.0932595 120.965176,83.8832054 L120.965176,81.6556919 L118.868706,81.6556919 C118.579294,81.6556919 118.369098,81.4472054 118.369098,81.1846378 L118.369098,79.1138811 C118.369098,78.8254486 118.579294,78.6169622 118.868706,78.6169622 L123.903216,78.6169622 C124.165176,78.6169622 124.376157,78.8520973 124.376157,79.1138811 L124.376157,85.8222865 C124.376157,86.0323405 124.270275,86.1640162 124.165176,86.2423946 C124.165176,86.2423946 121.465569,87.9455568 117.661647,87.9455568 C112.443608,87.9455568 108.248314,83.804827 108.248314,78.5644486 C108.248314,73.3232865 112.443608,69.1041784 117.661647,69.1041784" id="Fill-40"></path>
                    <path d="M126.040863,87.0274324 L134.194588,69.3922973 C134.275373,69.2347568 134.405569,69.1038649 134.641647,69.1038649 L134.903608,69.1038649 C135.166353,69.1038649 135.269882,69.2347568 135.349098,69.3922973 L143.427529,87.0274324 C143.582824,87.3691622 143.37498,87.7093243 142.978902,87.7093243 L140.697333,87.7093243 C140.304392,87.7093243 140.122431,87.5525676 139.938118,87.1857568 L138.654196,84.3555135 L130.813412,84.3555135 L129.527922,87.1857568 C129.422824,87.4467568 129.187529,87.7093243 128.768706,87.7093243 L126.485569,87.7093243 C126.091843,87.7093243 125.883216,87.3691622 126.040863,87.0274324 L126.040863,87.0274324 Z M137.367922,81.4468919 L134.747529,75.6821622 L134.668314,75.6821622 L132.098902,81.4468919 L137.367922,81.4468919 Z" id="Fill-42"></path>
                    <path d="M147.185961,72.510973 L143.17498,72.510973 C142.887137,72.510973 142.676941,72.2750541 142.676941,72.0124865 L142.676941,69.8641351 C142.676941,69.6015676 142.887137,69.3656486 143.17498,69.3656486 L154.634588,69.3656486 C154.923216,69.3656486 155.134196,69.6015676 155.134196,69.8641351 L155.134196,72.0124865 C155.134196,72.2750541 154.923216,72.510973 154.634588,72.510973 L150.622824,72.510973 L150.622824,87.2108378 C150.622824,87.4734054 150.385961,87.7093243 150.123216,87.7093243 L147.686353,87.7093243 C147.423608,87.7093243 147.185961,87.4734054 147.185961,87.2108378 L147.185961,72.510973 Z" id="Fill-44"></path>
                    <path d="M157.804078,69.8642135 C157.804078,69.6016459 158.038588,69.365727 158.301333,69.365727 L160.739765,69.365727 C161.028392,69.365727 161.238588,69.6016459 161.238588,69.8642135 L161.238588,76.8077541 L169.786824,76.8077541 L169.786824,69.8642135 C169.786824,69.6016459 169.997804,69.365727 170.284863,69.365727 L172.698196,69.365727 C172.959373,69.365727 173.196235,69.6016459 173.196235,69.8642135 L173.196235,87.2109162 C173.196235,87.4734838 172.959373,87.7094027 172.698196,87.7094027 L170.284863,87.7094027 C169.997804,87.7094027 169.786824,87.4734838 169.786824,87.2109162 L169.786824,79.9789432 L161.238588,79.9789432 L161.238588,87.2109162 C161.238588,87.4734838 161.028392,87.7094027 160.739765,87.7094027 L158.301333,87.7094027 C158.038588,87.7094027 157.804078,87.4734838 157.804078,87.2109162 L157.804078,69.8642135 Z" id="Fill-46"></path>
                    <path d="M177.749725,69.8642135 C177.749725,69.6016459 177.959922,69.365727 178.24698,69.365727 L188.918353,69.365727 C189.20698,69.365727 189.418745,69.6016459 189.418745,69.8642135 L189.418745,72.0125649 C189.418745,72.2751324 189.20698,72.5110514 188.918353,72.5110514 L181.157569,72.5110514 L181.157569,76.8077541 L187.634431,76.8077541 C187.897176,76.8077541 188.132471,77.043673 188.132471,77.3062405 L188.132471,79.4812405 C188.132471,79.769673 187.897176,79.9789432 187.634431,79.9789432 L181.157569,79.9789432 L181.157569,84.5648622 L188.918353,84.5648622 C189.20698,84.5648622 189.418745,84.8015649 189.418745,85.0625649 L189.418745,87.2109162 C189.418745,87.4734838 189.20698,87.7094027 188.918353,87.7094027 L178.24698,87.7094027 C177.959922,87.7094027 177.749725,87.4734838 177.749725,87.2109162 L177.749725,69.8642135 Z" id="Fill-48"></path>
                    <path d="M193.06298,69.8642135 C193.06298,69.6016459 193.274745,69.365727 193.564157,69.365727 L201.060627,69.365727 C204.20651,69.365727 206.77749,71.881673 206.77749,74.9995649 C206.77749,77.4104838 205.17749,79.3769973 202.895137,80.2932405 L206.488863,86.9491324 C206.673961,87.2900784 206.488863,87.7094027 206.044157,87.7094027 L203.291216,87.7094027 C203.054353,87.7094027 202.923373,87.577727 202.872392,87.4734838 L199.383765,80.5299432 L196.471608,80.5299432 L196.471608,87.2109162 C196.471608,87.4734838 196.234745,87.7094027 195.975137,87.7094027 L193.564157,87.7094027 C193.274745,87.7094027 193.06298,87.4734838 193.06298,87.2109162 L193.06298,69.8642135 Z M200.772,77.7263486 C202.162588,77.7263486 203.369647,76.5201054 203.369647,75.0520784 C203.369647,73.6639973 202.162588,72.5110514 200.772,72.5110514 L196.49749,72.5110514 L196.49749,77.7263486 L200.772,77.7263486 Z" id="Fill-50"></path>
                    <path d="M210.341569,69.8642135 C210.341569,69.6016459 210.552549,69.365727 210.841176,69.365727 L221.513333,69.365727 C221.802745,69.365727 222.010588,69.6016459 222.010588,69.8642135 L222.010588,72.0125649 C222.010588,72.2751324 221.802745,72.5110514 221.513333,72.5110514 L213.749412,72.5110514 L213.749412,76.8077541 L220.229412,76.8077541 C220.491373,76.8077541 220.725882,77.043673 220.725882,77.3062405 L220.725882,79.4812405 C220.725882,79.769673 220.491373,79.9789432 220.229412,79.9789432 L213.749412,79.9789432 L213.749412,84.5648622 L221.513333,84.5648622 C221.802745,84.5648622 222.010588,84.8015649 222.010588,85.0625649 L222.010588,87.2109162 C222.010588,87.4734838 221.802745,87.7094027 221.513333,87.7094027 L210.841176,87.7094027 C210.552549,87.7094027 210.341569,87.4734838 210.341569,87.2109162 L210.341569,69.8642135 Z" id="Fill-52"></path>
                    <path d="M225.656392,69.8642135 C225.656392,69.6016459 225.867373,69.365727 226.156,69.365727 L233.657176,69.365727 C236.802275,69.365727 239.369333,71.881673 239.369333,74.9995649 C239.369333,77.4104838 237.772471,79.3769973 235.490902,80.2932405 L239.083843,86.9491324 C239.265804,87.2900784 239.083843,87.7094027 238.639137,87.7094027 L235.883843,87.7094027 C235.649333,87.7094027 235.516784,87.577727 235.46502,87.4734838 L231.975608,80.5299432 L229.067373,80.5299432 L229.067373,87.2109162 C229.067373,87.4734838 228.83051,87.7094027 228.567765,87.7094027 L226.156,87.7094027 C225.867373,87.7094027 225.656392,87.4734838 225.656392,87.2109162 L225.656392,69.8642135 Z M233.367765,77.7263486 C234.756784,77.7263486 235.962275,76.5201054 235.962275,75.0520784 C235.962275,73.6639973 234.756784,72.5110514 233.367765,72.5110514 L229.093255,72.5110514 L229.093255,77.7263486 L233.367765,77.7263486 Z" id="Fill-54"></path>
                </g>
            </g>
        </g>
    </g>
</svg>