<?xml version="1.0" encoding="UTF-8"?>
<svg width="240px" height="90px" viewBox="0 0 240 90" version="1.1" xmlns="http://www.w3.org/2000/svg" xmlns:xlink="http://www.w3.org/1999/xlink">
    <!-- Generator: Sketch 46.2 (44496) - http://www.bohemiancoding.com/sketch -->
    <title>Group 100</title>
    <desc>Created with Sketch.</desc>
    <defs>
        <linearGradient x1="-190.429492%" y1="143.740254%" x2="377.618499%" y2="-101.332404%" id="linearGradient-1">
            <stop stop-color="#EC1C24" offset="0%"></stop>
            <stop stop-color="#F4821F" offset="99%"></stop>
        </linearGradient>
        <linearGradient x1="-266.143904%" y1="187.582491%" x2="315.223973%" y2="-70.1444876%" id="linearGradient-2">
            <stop stop-color="#EC1C24" offset="0%"></stop>
            <stop stop-color="#F4821F" offset="99%"></stop>
        </linearGradient>
        <linearGradient x1="-206.818316%" y1="160.998329%" x2="280.895485%" y2="-54.2427412%" id="linearGradient-3">
            <stop stop-color="#EC1C24" offset="0%"></stop>
            <stop stop-color="#F4821F" offset="99%"></stop>
        </linearGradient>
        <linearGradient x1="21.740176%" y1="60.1335161%" x2="114.07687%" y2="14.3070505%" id="linearGradient-4">
            <stop stop-color="#EC1C24" offset="0%"></stop>
            <stop stop-color="#F4821F" offset="99%"></stop>
        </linearGradient>
        <linearGradient x1="-358.995167%" y1="228.294285%" x2="126.76146%" y2="13.9698503%" id="linearGradient-5">
            <stop stop-color="#EC1C24" offset="0%"></stop>
            <stop stop-color="#F4821F" offset="99%"></stop>
        </linearGradient>
        <linearGradient x1="-352.623264%" y1="172.065103%" x2="137.693157%" y2="32.6412977%" id="linearGradient-6">
            <stop stop-color="#EC1C24" offset="0%"></stop>
            <stop stop-color="#F4821F" offset="99%"></stop>
        </linearGradient>
        <linearGradient x1="-110.850661%" y1="119.72025%" x2="150.011645%" y2="8.61376326%" id="linearGradient-7">
            <stop stop-color="#EC1C24" offset="0%"></stop>
            <stop stop-color="#F4821F" offset="99%"></stop>
        </linearGradient>
    </defs>
    <g id="Page-1" stroke="none" stroke-width="1" fill="none" fill-rule="evenodd">
        <g id="Group-100">
            <rect id="Rectangle-94" fill="#FFFFFF" x="0" y="0" width="240" height="90"></rect>
            <g id="logo-shinho" transform="translate(22.000000, 0.000000)" fill-rule="nonzero">
                <path d="M63.0777778,85.226087 C66.8111111,83.5043478 70.2333333,81.2347826 73.3444444,78.573913 C73.4222222,78.4956522 73.5,78.3391304 73.4222222,78.2608696 C73.0333333,77.4782609 72.6444444,76.773913 72.1777778,76.0695652 L67.9777778,70.3565217 C67.9,70.2 67.7444444,70.2 67.5888889,70.2782609 C67.5111111,70.3565217 67.4333333,70.4347826 67.4333333,70.5130435 C67.4333333,70.5913043 67.4333333,70.6695652 67.4333333,70.6695652 C67.5111111,75.9130435 65.8,80.9217391 62.6111111,85.0695652 C62.5333333,85.1478261 62.5333333,85.226087 62.6111111,85.3043478 L62.6888889,85.3826087 C62.8444444,85.3826087 63,85.3043478 63.0777778,85.226087 Z" id="Shape" fill="url(#linearGradient-1)"></path>
                <path d="M60.2777778,59.9478261 L59.1111111,58.3043478 L57.9444444,59.8695652 L57.8666667,59.9478261 C53.0444444,66.9913043 53.5111111,76.3826087 59.1111111,82.8782609 C64.6333333,76.4608696 65.1777778,67.0695652 60.4333333,60.026087 L60.2777778,59.9478261 Z" id="Shape" fill="#FAA81E"></path>
                <path d="M64.7111111,42.2608696 C64.7111111,39.1304348 62.2222222,36.4695652 59.1111111,36.3130435 L59.0333333,36.3130435 C55.7666667,36.4695652 53.2777778,39.2869565 53.4333333,42.573913 C53.5111111,43.6695652 53.8222222,44.6869565 54.4444444,45.626087 L58.7222222,51.4173913 C58.8777778,51.573913 59.1111111,51.6521739 59.2666667,51.4956522 L59.3444444,51.4173913 L63.6222222,45.7043478 C64.3222222,44.6086957 64.7111111,43.4347826 64.7111111,42.2608696 Z" id="Shape" fill="url(#linearGradient-2)"></path>
                <path d="M50.5555556,24.8869565 C52.7333333,21.6 51.9555556,17.2173913 48.6888889,15.026087 C47.6,14.3217391 46.3555556,13.8521739 45.1111111,13.773913 L45.0333333,13.773913 C41.1444444,14.0086957 38.1111111,17.373913 38.3444444,21.2869565 C38.4222222,22.5391304 38.8111111,23.7913043 39.5888889,24.8869565 L39.5888889,24.9652174 L44.6444444,31.8521739 C44.8,32.0869565 45.1111111,32.0869565 45.2666667,32.0086957 C45.3444444,32.0086957 45.3444444,31.9304348 45.4222222,31.8521739 L50.5555556,24.8869565 L50.5555556,24.8869565 Z" id="Shape" fill="url(#linearGradient-3)"></path>
                <path d="M29.7888889,60.026087 C23.9555556,68.4782609 26.0555556,80.1391304 34.4555556,86.0869565 C35.7777778,87.026087 37.2555556,87.8086957 38.8111111,88.3565217 C39.1222222,88.4347826 39.4333333,88.3565217 39.5888889,88.0434783 C39.5888889,87.9652174 39.6666667,87.8086957 39.5888889,87.7304348 C39.0444444,83.8956522 39.6666667,79.9826087 41.3777778,76.4608696 L41.3777778,76.3826087 L42.9333333,73.7217391 L42.9333333,73.6434783 L56.7,55.0956522 L45.5,39.9913043 C45.3444444,39.7565217 44.9555556,39.6782609 44.7222222,39.8347826 C44.6444444,39.8347826 44.6444444,39.9130435 44.5666667,39.9913043 L29.7888889,60.026087 Z" id="Shape" fill="#FAA81E"></path>
                <path d="M22.6333333,70.6695652 C22.6333333,67.226087 23.4111111,63.9391304 24.8888889,60.8086957 C25.4333333,59.7130435 26.0555556,58.6956522 26.6777778,57.6782609 L42.7777778,36 C42.8555556,35.9217391 42.8555556,35.7652174 42.7777778,35.6869565 L37.1,28.0173913 L36.5555556,27.2347826 C33.0555556,22.3043478 34.2222222,15.4956522 39.1222222,11.973913 C40.8333333,10.7217391 42.9333333,10.0173913 45.1111111,9.93913043 L45.1888889,9.93913043 C51.1,10.173913 55.8444444,15.1826087 55.6111111,21.2086957 C55.5333333,23.3217391 54.8333333,25.4347826 53.5888889,27.2347826 L53.0444444,28.0173913 L47.3666667,35.6869565 C47.2888889,35.7652174 47.2888889,35.9217391 47.3666667,36 L49.7,39.2086957 C49.7777778,39.2869565 49.9333333,39.3652174 50.0111111,39.2869565 L50.0888889,39.2086957 C51.3333333,35.373913 54.7555556,32.7913043 58.7222222,32.5565217 L59.2666667,32.5565217 C63.2333333,32.7913043 66.7333333,35.4521739 67.9777778,39.2869565 C68.0555556,39.4434783 68.1333333,39.5217391 68.2888889,39.4434783 C68.3666667,39.4434783 68.3666667,39.3652174 68.3666667,39.3652174 L70.7777778,36.1565217 C70.8555556,36.0782609 70.8555556,35.9217391 70.7777778,35.8434783 L64.4777778,27.3130435 C60.9777778,22.3826087 62.2222222,15.4956522 67.1222222,12.0521739 C68.2888889,11.1913043 69.6888889,10.6434783 71.0888889,10.3304348 C71.2444444,10.3304348 71.3222222,10.173913 71.2444444,10.0173913 C71.2444444,9.93913043 71.1666667,9.93913043 71.1666667,9.86086957 C61.0555556,1.95652174 48.0666667,-1.0173913 35.5444444,1.56521739 C18.3555556,5.00869565 4.82222222,18.4695652 1.32222222,35.7652174 C-3.11111111,56.973913 8.24444444,78.2608696 28.2333333,86.3217391 C28.3888889,86.4 28.4666667,86.3217391 28.5444444,86.1652174 C28.5444444,86.0869565 28.5444444,86.0086957 28.4666667,85.9304348 C24.7333333,81.7826087 22.6333333,76.3043478 22.6333333,70.6695652 Z" id="Shape" fill="url(#linearGradient-4)"></path>
                <path d="M56.0777778,85.773913 C56.2333333,85.6956522 56.2333333,85.4608696 56.1555556,85.3826087 L56.1555556,85.3826087 C52.6555556,81.3130435 50.7888889,76.0695652 50.7888889,70.7478261 C50.7888889,70.6695652 50.7888889,70.5913043 50.7888889,70.5130435 C50.7888889,70.3565217 50.6333333,70.2 50.4777778,70.2 C50.4,70.2 50.3222222,70.2782609 50.2444444,70.3565217 L46.1222222,75.9130435 C43.4,79.7478261 42.5444444,84.6 43.7888889,89.1391304 C43.7888889,89.2956522 43.9444444,89.373913 44.0222222,89.373913 C44.3333333,89.373913 44.6444444,89.373913 45.0333333,89.373913 L45.4222222,89.373913 C49.2333333,89.2956522 52.9666667,88.0434783 56.0777778,85.773913 Z" id="Shape" fill="#FAA81E"></path>
                <path d="M66.3444444,20.8956522 C66.3444444,22.3043478 66.7333333,23.7130435 67.5888889,24.8869565 L72.7222222,31.8521739 C72.8777778,32.0869565 73.1888889,32.0869565 73.3444444,32.0086957 C73.4222222,32.0086957 73.4222222,31.9304348 73.5,31.8521739 L78.6333333,24.8869565 C80.1888889,22.5391304 80.2666667,19.5652174 78.7888889,17.1391304 L78.7888889,17.0608696 C78.4,16.5130435 77.9333333,16.0434783 77.4666667,15.4956522 L77.3888889,15.4173913 C76.2222222,14.4 74.7444444,13.773913 73.1111111,13.6956522 L73.0333333,13.6956522 C69.3,14.0086957 66.3444444,17.1391304 66.3444444,20.8956522 Z" id="Shape" fill="url(#linearGradient-5)"></path>
                <path d="M81.6666667,27.2347826 L81.0444444,28.0173913 L75.3666667,35.6869565 C75.2888889,35.7652174 75.2888889,35.9217391 75.3666667,36.0782609 L87.4222222,52.3565217 C87.5,52.5130435 87.7333333,52.5130435 87.8888889,52.4347826 C87.9666667,52.3565217 87.9666667,52.2782609 88.0444444,52.2 C89.6,42.7304348 88.0444444,33.026087 83.6111111,24.573913 C83.5333333,24.4173913 83.3777778,24.3391304 83.2222222,24.4173913 C83.1444444,24.4173913 83.0666667,24.4956522 83.0666667,24.573913 C82.7555556,25.5130435 82.2888889,26.373913 81.6666667,27.2347826 Z" id="Shape" fill="url(#linearGradient-6)"></path>
                <path d="M73.6555556,40.1478261 C73.4222222,39.8347826 72.9555556,39.7565217 72.6444444,39.9913043 C72.5666667,40.0695652 72.5666667,40.0695652 72.4888889,40.1478261 L61.5222222,55.0956522 L74.5888889,72.8608696 C74.5888889,72.8608696 75.6777778,74.426087 75.9111111,74.8173913 C76.1444444,75.1304348 76.5333333,75.2869565 76.8444444,75.0521739 C76.9222222,75.0521739 76.9222222,74.973913 77,74.8956522 C81.3555556,70.0434783 84.6222222,64.3304348 86.5666667,58.0695652 C86.6444444,57.8347826 86.5666667,57.6 86.4111111,57.3652174 L73.6555556,40.1478261 Z" id="Shape" fill="url(#linearGradient-7)"></path>
                <path d="M114.955556,46.0956522 C113.633333,46.173913 112.233333,45.8608696 110.988889,45.3130435 C110.055556,44.8434783 109.2,44.1391304 108.5,43.3565217 C108.266667,43.1217391 108.188889,42.8869565 108.111111,42.573913 C108.111111,42.2608696 108.188889,41.9478261 108.5,41.7130435 L109.277778,40.9304348 C109.511111,40.6956522 109.744444,40.6173913 110.055556,40.5391304 L110.133333,40.5391304 C110.444444,40.5391304 110.677778,40.6956522 110.911111,40.9304348 L111.611111,41.4782609 C111.844444,41.7130435 112.155556,41.8695652 112.466667,42.026087 C112.777778,42.1826087 113.166667,42.3391304 113.555556,42.4173913 C114.022222,42.4956522 114.488889,42.573913 114.955556,42.573913 C115.966667,42.6521739 116.977778,42.2608696 117.755556,41.6347826 C118.455556,41.0869565 118.844444,40.226087 118.844444,39.2869565 C118.922222,38.3478261 118.533333,37.4086957 117.833333,36.7043478 C116.9,35.8434783 115.811111,35.1391304 114.644444,34.6695652 C113.788889,34.2782609 112.933333,33.8086957 112.155556,33.2608696 C111.455556,32.7913043 110.755556,32.2434783 110.211111,31.6173913 C109.666667,30.9913043 109.277778,30.2869565 108.966667,29.5043478 C108.655556,28.6434783 108.5,27.7043478 108.577778,26.7652174 C108.577778,25.9043478 108.733333,25.0434783 109.044444,24.3391304 C109.355556,23.5565217 109.822222,22.8521739 110.444444,22.226087 C111.066667,21.6 111.844444,21.1304348 112.7,20.7391304 C114.8,19.8782609 117.211111,20.0347826 119.233333,20.973913 C120.088889,21.4434783 120.866667,21.9913043 121.644444,22.6956522 C122.111111,23.0086957 122.188889,23.7130435 121.877778,24.1826087 C121.8,24.2608696 121.722222,24.3391304 121.644444,24.4173913 L120.788889,25.2782609 C120.555556,25.5130435 120.322222,25.6695652 120.011111,25.6695652 C119.7,25.6695652 119.388889,25.5130435 119.155556,25.2782609 C118.688889,24.8869565 118.222222,24.573913 117.677778,24.2608696 C117.055556,23.8695652 116.277778,23.7130435 115.577778,23.7130435 C115.111111,23.7130435 114.566667,23.7913043 114.1,23.9478261 C113.711111,24.1043478 113.322222,24.3391304 112.933333,24.6521739 C112.622222,24.8869565 112.311111,25.2782609 112.155556,25.6695652 C112,26.0608696 111.922222,26.4521739 111.922222,26.8434783 C111.922222,27.3130435 112,27.7826087 112.155556,28.2521739 C112.311111,28.6434783 112.544444,29.0347826 112.855556,29.3478261 C113.244444,29.7391304 113.633333,30.0521739 114.1,30.3652174 C114.722222,30.7565217 115.344444,31.0695652 116.044444,31.3043478 C116.977778,31.6956522 117.833333,32.1652174 118.766667,32.7130435 C119.544444,33.1826087 120.166667,33.7304348 120.788889,34.3565217 C121.333333,34.9826087 121.722222,35.6869565 122.033333,36.4695652 C122.344444,37.3304348 122.5,38.2695652 122.422222,39.2086957 C122.422222,40.1478261 122.188889,41.0869565 121.8,41.8695652 C121.411111,42.7304348 120.866667,43.4347826 120.166667,44.0608696 C119.466667,44.6869565 118.611111,45.2347826 117.755556,45.626087 C116.822222,46.0173913 115.811111,46.173913 114.8,46.173913" id="Shape" fill="#D71F45"></path>
                <path d="M125.844444,45.7043478 C125.222222,45.7826087 124.677778,45.3130435 124.677778,44.6869565 C124.677778,44.6086957 124.677778,44.5304348 124.677778,44.5304348 L124.677778,21.3652174 C124.6,20.7391304 125.066667,20.1913043 125.688889,20.1913043 C125.766667,20.1913043 125.844444,20.1913043 125.844444,20.1913043 L126.933333,20.1913043 C127.555556,20.1130435 128.1,20.5826087 128.1,21.2086957 C128.1,21.2869565 128.1,21.3652174 128.1,21.4434783 L128.1,32.6347826 L128.1,44.6086957 C128.1,44.9217391 127.944444,45.2347826 127.711111,45.4695652 C127.477778,45.7043478 127.166667,45.7826087 126.855556,45.7826087 L125.844444,45.7043478 Z" id="Shape" fill="#D71F45"></path>
                <path d="M136.266667,45.7043478 C135.644444,45.7826087 135.1,45.3130435 135.1,44.6869565 C135.1,44.6086957 135.1,44.5304348 135.1,44.5304348 L135.1,35.1391304 C135.177778,34.3565217 134.866667,33.573913 134.322222,33.026087 C133.777778,32.4782609 133,32.1652174 132.222222,32.2434783 L129.655556,32.2434783 L129.655556,28.9565217 L132.377778,28.9565217 C133.233333,28.9565217 134.088889,29.1130435 134.866667,29.426087 C135.566667,29.7391304 136.266667,30.1304348 136.811111,30.6782609 C137.355556,31.226087 137.822222,31.9304348 138.055556,32.6347826 C138.366667,33.4173913 138.522222,34.2782609 138.522222,35.1391304 L138.522222,44.5304348 C138.6,45.1565217 138.133333,45.7043478 137.511111,45.7043478 C137.433333,45.7043478 137.355556,45.7043478 137.355556,45.7043478 L136.266667,45.7043478 Z" id="Shape" fill="#D71F45"></path>
                <path d="M141.944444,27.2347826 C141.322222,27.3130435 140.777778,26.8434783 140.777778,26.2173913 C140.777778,26.1391304 140.777778,26.0608696 140.777778,26.0608696 L140.777778,24.1826087 C140.777778,23.5565217 141.244444,23.0869565 141.866667,23.0086957 C141.944444,23.0086957 141.944444,23.0086957 142.022222,23.0086957 L143.111111,23.0086957 C143.733333,22.9304348 144.277778,23.4 144.277778,24.026087 C144.277778,24.1043478 144.277778,24.1826087 144.277778,24.2608696 L144.277778,26.1391304 C144.355556,26.7652174 143.888889,27.3130435 143.266667,27.3130435 C143.188889,27.3130435 143.111111,27.3130435 143.111111,27.3130435 L141.944444,27.2347826 Z M141.944444,45.7826087 C141.322222,45.8608696 140.777778,45.3913043 140.777778,44.7652174 C140.777778,44.6869565 140.777778,44.6086957 140.777778,44.6086957 L140.777778,30.2086957 C140.7,29.5826087 141.166667,29.0347826 141.788889,29.0347826 C141.866667,29.0347826 141.944444,29.0347826 141.944444,29.0347826 L143.033333,29.0347826 C143.655556,28.9565217 144.2,29.426087 144.2,30.0521739 C144.2,30.1304348 144.2,30.2086957 144.2,30.2086957 L144.2,44.6086957 C144.277778,45.2347826 143.811111,45.7826087 143.188889,45.7826087 C143.111111,45.7826087 143.033333,45.7826087 143.033333,45.7826087 L141.944444,45.7826087 Z" id="Shape" fill="#D71F45"></path>
                <path d="M157.888889,45.7043478 C157.266667,45.7826087 156.722222,45.3130435 156.722222,44.6869565 C156.722222,44.6086957 156.722222,44.5304348 156.722222,44.4521739 L156.722222,35.373913 C156.722222,34.5130435 156.411111,33.6521739 155.866667,32.9478261 C154.466667,31.6173913 152.211111,31.6173913 150.811111,32.9478261 C150.266667,33.6521739 149.955556,34.4347826 149.955556,35.373913 L149.955556,44.6086957 C150.033333,45.2347826 149.566667,45.7826087 148.944444,45.7826087 C148.866667,45.7826087 148.866667,45.7826087 148.788889,45.7826087 L147.7,45.7826087 C147.077778,45.8608696 146.533333,45.3913043 146.533333,44.7652174 C146.533333,44.6869565 146.533333,44.6086957 146.533333,44.6086957 L146.533333,35.373913 C146.533333,34.5130435 146.688889,33.6521739 147,32.7913043 C147.622222,31.1478261 148.944444,29.8956522 150.577778,29.1913043 C152.366667,28.4869565 154.388889,28.4869565 156.177778,29.1913043 C158.666667,30.2086957 160.222222,32.7130435 160.222222,35.373913 L160.222222,44.6086957 C160.3,45.2347826 159.833333,45.7826087 159.211111,45.7826087 C159.133333,45.7826087 159.055556,45.7826087 159.055556,45.7826087 L157.888889,45.7043478 Z" id="Shape" fill="#D71F45"></path>
                <path d="M186.977778,31.9304348 C186.277778,31.9304348 185.577778,32.0869565 184.877778,32.3217391 C184.255556,32.6347826 183.711111,33.026087 183.244444,33.4956522 C182.777778,33.9652174 182.388889,34.5913043 182.155556,35.2173913 C181.611111,36.5478261 181.611111,38.1130435 182.155556,39.4434783 C182.388889,40.0695652 182.777778,40.6956522 183.244444,41.1652174 C183.711111,41.6347826 184.255556,42.026087 184.877778,42.3391304 C186.2,42.8869565 187.677778,42.8869565 189,42.3391304 C189.622222,42.026087 190.166667,41.6347826 190.633333,41.1652174 C191.1,40.6956522 191.488889,40.0695652 191.722222,39.4434783 C192.266667,38.1130435 192.266667,36.5478261 191.722222,35.2173913 C191.488889,34.5913043 191.1,33.9652174 190.633333,33.4956522 C190.166667,33.026087 189.622222,32.6347826 189,32.3217391 C188.377778,32.0869565 187.677778,31.9304348 186.977778,31.9304348 M186.977778,46.0956522 C185.811111,46.0956522 184.644444,45.8608696 183.633333,45.3913043 C181.533333,44.5304348 179.9,42.8086957 179.044444,40.773913 C178.111111,38.5826087 178.111111,36.1565217 179.044444,33.9652174 C179.9,31.8521739 181.611111,30.2086957 183.633333,29.3478261 C185.811111,28.4086957 188.222222,28.4086957 190.4,29.3478261 C192.5,30.2086957 194.133333,31.9304348 194.988889,33.9652174 C195.922222,36.1565217 195.922222,38.5826087 194.988889,40.773913 C194.133333,42.8869565 192.422222,44.5304348 190.4,45.3913043 C189.311111,45.8608696 188.144444,46.0956522 186.977778,46.0956522" id="Shape" fill="#D71F45"></path>
                <path d="M163.411111,45.7043478 C162.788889,45.7826087 162.244444,45.3130435 162.244444,44.6869565 C162.244444,44.6086957 162.244444,44.5304348 162.244444,44.5304348 L162.244444,21.3652174 C162.166667,20.7391304 162.633333,20.1913043 163.255556,20.1913043 C163.333333,20.1913043 163.411111,20.1913043 163.411111,20.1913043 L164.5,20.1913043 C165.122222,20.1130435 165.666667,20.5826087 165.666667,21.2086957 C165.666667,21.2869565 165.666667,21.3652174 165.666667,21.4434783 L165.666667,44.6086957 C165.744444,45.2347826 165.277778,45.7826087 164.655556,45.7826087 C164.577778,45.7826087 164.5,45.7826087 164.422222,45.7826087 L163.411111,45.7043478 Z" id="Shape" fill="#D71F45"></path>
                <path d="M173.988889,45.7043478 C173.366667,45.7826087 172.822222,45.3130435 172.822222,44.6869565 C172.822222,44.6086957 172.822222,44.5304348 172.822222,44.5304348 L172.822222,35.1391304 C172.9,34.3565217 172.588889,33.573913 172.044444,33.026087 C171.5,32.4782609 170.722222,32.1652174 169.944444,32.2434783 L167.377778,32.2434783 L167.377778,28.9565217 L170.1,28.9565217 C170.955556,28.9565217 171.811111,29.1130435 172.588889,29.426087 C173.288889,29.7391304 173.988889,30.1304348 174.533333,30.6782609 C175.077778,31.226087 175.544444,31.9304348 175.777778,32.6347826 C176.088889,33.4173913 176.244444,34.2782609 176.244444,35.1391304 L176.244444,44.5304348 C176.322222,45.1565217 175.855556,45.7043478 175.233333,45.7043478 C175.155556,45.7043478 175.077778,45.7043478 175,45.7043478 L173.988889,45.7043478 Z" id="Shape" fill="#D71F45"></path>
                <path d="M140.933333,71.2956522 C140.855556,71.1391304 140.777778,71.0608696 140.311111,70.9043478 C140,70.826087 139.766667,70.6695652 139.455556,70.5130435 C136.5,68.8695652 135.722222,66.9913043 134.711111,64.3304348 C134.711111,64.2521739 134.633333,64.2521739 134.633333,64.2521739 C134.555556,64.2521739 134.555556,64.3304348 134.555556,64.3304348 C134.166667,65.7391304 133.7,67.0695652 133,68.3217391 L133,68.4 C134.088889,70.5913043 135.877778,72.3913043 138.133333,73.4869565 L138.133333,73.4869565 C138.522222,73.6434783 138.911111,73.8 139.3,73.8782609 C139.611111,73.9565217 139.922222,73.9565217 140.155556,73.8 C140.388889,73.6434783 140.622222,73.3304348 140.7,73.0956522 L140.933333,72.0782609 C141.088889,71.5304348 141.011111,71.4521739 140.933333,71.2956522" id="Shape" fill="#EE4632"></path>
                <path d="M123.277778,60.1826087 C123.511111,59.9478261 123.588889,59.6347826 123.588889,59.3217391 L123.588889,58.226087 C123.666667,57.6782609 123.2,57.1304348 122.655556,57.0521739 C122.577778,57.0521739 122.5,57.0521739 122.422222,57.0521739 L112.7,57.0521739 L112.7,55.4869565 C112.622222,54.3913043 113.4,53.4521739 114.488889,53.4521739 C114.566667,53.4521739 114.722222,53.4521739 114.8,53.4521739 L120.244444,53.4521739 C121.177778,53.4521739 122.033333,53.0608696 122.655556,52.4347826 C123.2,51.8869565 123.666667,50.0869565 122.733333,50.0869565 L114.8,50.0869565 C111.844444,49.9304348 109.433333,52.2782609 109.277778,55.173913 C109.277778,55.2521739 109.277778,55.3304348 109.277778,55.4869565 L109.277778,73.0173913 C109.2,73.5652174 109.666667,74.1130435 110.211111,74.1913043 C110.288889,74.1913043 110.366667,74.1913043 110.366667,74.1913043 L111.455556,74.1913043 C112.077778,74.2695652 112.544444,73.8 112.622222,73.173913 C112.622222,73.0956522 112.622222,73.0956522 112.622222,73.0173913 L112.622222,60.4956522 L117.133333,60.4956522 L117.133333,73.0173913 C117.055556,73.6434783 117.522222,74.1130435 118.144444,74.1913043 C118.222222,74.1913043 118.222222,74.1913043 118.3,74.1913043 L119.388889,74.1913043 C119.933333,74.2695652 120.477778,73.8 120.555556,73.2521739 C120.555556,73.173913 120.555556,73.0956522 120.555556,73.0173913 L120.555556,60.4956522 L122.5,60.4956522 C122.733333,60.4956522 123.044444,60.4173913 123.277778,60.1826087" id="Shape" fill="#EE4632"></path>
                <path d="M134.088889,59.6347826 C134.088889,58.773913 134.088889,58.1478261 134.088889,58.1478261 L134.088889,54.0782609 L136.966667,54.0782609 L136.966667,59.5565217 L136.966667,59.5565217 L136.966667,59.7913043 C136.888889,60.3391304 137.355556,60.8869565 137.9,60.9652174 C137.977778,60.9652174 138.055556,60.9652174 138.055556,60.9652174 L139.144444,60.9652174 C139.766667,61.0434783 140.233333,60.573913 140.311111,59.9478261 C140.311111,59.8695652 140.311111,59.8695652 140.311111,59.7913043 L140.311111,54.2347826 C140.311111,52.5130435 138.911111,51.1826087 137.2,51.1826087 L128.644444,51.1826087 L128.644444,49.6173913 C128.644444,49.3826087 128.488889,49.1478261 128.333333,48.9913043 C128.1,48.7565217 127.788889,48.6782609 127.477778,48.6782609 L126.388889,48.6782609 C126.077778,48.6782609 125.766667,48.7565217 125.533333,48.9913043 C125.377778,49.1478261 125.222222,49.3826087 125.222222,49.6173913 L125.222222,61.4347826 C125.144444,62.0608696 125.611111,62.5304348 126.233333,62.6086957 C126.311111,62.6086957 126.311111,62.6086957 126.388889,62.6086957 L127.477778,62.6086957 C128.1,62.6869565 128.566667,62.2173913 128.644444,61.5913043 C128.644444,61.5130435 128.644444,61.5130435 128.644444,61.4347826 L128.644444,61.3565217 L128.644444,61.3565217 L128.644444,54.1565217 L131.366667,54.1565217 L131.366667,58.226087 C131.366667,58.3043478 131.366667,66.9130435 126.233333,69.8869565 C126.077778,69.9652174 125.922222,70.0434783 125.688889,70.2 C125.533333,70.2782609 125.3,70.3565217 125.066667,70.4347826 L124.677778,70.5913043 C124.366667,70.6695652 124.133333,70.826087 123.977778,71.0608696 C123.822222,71.373913 123.822222,71.6869565 123.822222,72 L123.977778,73.0173913 C124.055556,73.3304348 124.211111,73.5652174 124.522222,73.7217391 C124.833333,73.8782609 125.144444,73.8782609 125.455556,73.8 C129.033333,72.5478261 131.522222,69.7304348 133,65.5043478 C133.544444,63.5478261 133.933333,61.5913043 134.088889,59.6347826" id="Shape" fill="#EE4632"></path>
                <path d="M160.611111,57.8347826 C160.377778,57.6 160.066667,57.5217391 159.755556,57.5217391 L153.922222,57.5217391 L153.922222,53.4521739 L157.655556,53.4521739 C158.588889,53.5304348 159.444444,53.1391304 160.066667,52.5913043 C160.611111,52.0434783 161.077778,50.1652174 160.144444,50.1652174 L145.522222,50.1652174 C144.977778,50.0869565 144.433333,50.5565217 144.355556,51.1043478 C144.355556,51.1826087 144.355556,51.2608696 144.355556,51.3391304 L144.355556,52.4347826 C144.277778,53.0608696 144.744444,53.5304348 145.366667,53.6086957 C145.444444,53.6086957 145.444444,53.6086957 145.522222,53.6086957 L150.577778,53.6086957 L150.577778,57.6 L145.366667,57.6 C144.822222,57.5217391 144.277778,57.9913043 144.2,58.5391304 C144.2,58.6173913 144.2,58.6956522 144.2,58.6956522 L144.2,59.7913043 C144.122222,60.4173913 144.588889,60.8869565 145.211111,60.9652174 C145.288889,60.9652174 145.288889,60.9652174 145.366667,60.9652174 L150.577778,60.9652174 L150.577778,61.6695652 C150.577778,63.2347826 145.833333,68.0086957 143.811111,68.4 L143.577778,68.4782609 C143.344444,68.5565217 143.033333,68.7130435 142.877778,68.8695652 C142.722222,69.1043478 142.644444,69.4173913 142.722222,69.7304348 L142.877778,70.7478261 C142.877778,71.0608696 143.111111,71.373913 143.344444,71.5304348 C143.422222,71.6086957 143.5,71.6086957 143.655556,71.6086957 C143.811111,71.6086957 144.044444,71.6086957 144.277778,71.6086957 C147.388889,71.0608696 150.577778,67.4608696 150.577778,67.4608696 L150.577778,73.0956522 C150.577778,73.4086957 150.655556,73.7217391 150.888889,73.9565217 C151.122222,74.1913043 151.433333,74.2695652 151.744444,74.2695652 L152.833333,74.2695652 C153.455556,74.3478261 153.922222,73.8782609 154,73.2521739 C154,73.173913 154,73.173913 154,73.0956522 L154,60.8869565 L159.833333,60.8869565 C160.377778,60.9652174 160.922222,60.4956522 161,59.9478261 C161,59.8695652 161,59.7913043 161,59.7913043 L161,58.6956522 C161,58.3043478 160.844444,58.0695652 160.611111,57.8347826" id="Shape" fill="#EE4632"></path>
                <path d="M173.211111,68.1652174 C173.211111,68.7913043 172.977778,69.4173913 172.511111,69.8869565 C172.044444,70.3565217 171.422222,70.5913043 170.8,70.5913043 L168.311111,70.5913043 C167.066667,70.6695652 165.977778,69.7304348 165.9,68.4782609 C165.9,68.4 165.9,68.3217391 165.9,68.1652174 L165.9,56.5043478 C165.9,55.8782609 166.133333,55.2521739 166.6,54.7826087 C167.066667,54.3130435 167.688889,54.0782609 168.311111,54.0782609 L170.8,54.0782609 C172.044444,54 173.133333,54.9391304 173.211111,56.1913043 C173.211111,56.2695652 173.211111,56.3478261 173.211111,56.5043478 L173.211111,68.1652174 Z M175.933333,54.0782609 C175.388889,52.7478261 174.3,51.6521739 172.977778,51.1043478 C172.277778,50.7913043 171.5,50.6347826 170.722222,50.7130435 L168.233333,50.7130435 C167.455556,50.7130435 166.755556,50.8695652 165.977778,51.1043478 C165.277778,51.3391304 164.733333,51.7304348 164.188889,52.2782609 C163.644444,52.826087 163.255556,53.4521739 163.022222,54.1565217 C162.788889,54.9391304 162.633333,55.7217391 162.633333,56.5043478 L162.633333,68.3217391 C162.633333,69.1043478 162.788889,69.8869565 163.022222,70.5913043 C163.566667,71.9217391 164.655556,73.0173913 165.977778,73.5652174 C166.677778,73.8782609 167.455556,74.0347826 168.233333,73.9565217 L170.722222,73.9565217 C171.5,73.9565217 172.2,73.8 172.977778,73.5652174 C173.677778,73.3304348 174.3,72.8608696 174.766667,72.3913043 C175.311111,71.8434783 175.7,71.2173913 175.933333,70.5130435 C176.244444,69.7304348 176.4,68.9478261 176.322222,68.1652174 L176.322222,56.426087 C176.4,55.6434783 176.244444,54.8608696 175.933333,54.0782609 L175.933333,54.0782609 Z" id="Shape" fill="#EE4632"></path>
                <path d="M160.3,68.4782609 L160.3,68.4782609 C158.355556,67.0695652 156.722222,65.2695652 155.555556,63.0782609 C155.555556,63 155.477778,63 155.4,63 C155.322222,63 155.322222,63.0782609 155.322222,63.1565217 L155.322222,68.4 L155.322222,68.4782609 C156.333333,69.4956522 157.422222,70.4347826 158.666667,71.2956522 L158.9,71.4521739 L158.9,71.4521739 C159.055556,71.5304348 159.133333,71.5304348 159.288889,71.5304348 C159.366667,71.5304348 159.444444,71.5304348 159.522222,71.5304348 C159.833333,71.4521739 160.066667,71.2173913 160.222222,70.9826087 L160.688889,70.2 C161,69.6521739 160.844444,69.026087 160.377778,68.7130435 C160.377778,68.7130435 160.3,68.7130435 160.3,68.6347826" id="Shape" fill="#EE4632"></path>
            </g>
        </g>
    </g>
</svg>