<?xml version="1.0" encoding="UTF-8"?>
<svg width="256px" height="256px" viewBox="0 0 256 256" version="1.1" xmlns="http://www.w3.org/2000/svg" xmlns:xlink="http://www.w3.org/1999/xlink">
    <!-- Generator: Sketch 46.2 (44496) - http://www.bohemiancoding.com/sketch -->
    <title>Group 83</title>
    <desc>Created with Sketch.</desc>
    <defs>
        <linearGradient x1="-190.429492%" y1="98.5016366%" x2="377.618499%" y2="-28.3000787%" id="linearGradient-1">
            <stop stop-color="#EC1C24" offset="0%"></stop>
            <stop stop-color="#F4821F" offset="99%"></stop>
        </linearGradient>
        <linearGradient x1="-266.143904%" y1="125.159214%" x2="315.223973%" y2="-15.6330992%" id="linearGradient-2">
            <stop stop-color="#EC1C24" offset="0%"></stop>
            <stop stop-color="#F4821F" offset="99%"></stop>
        </linearGradient>
        <linearGradient x1="-206.818316%" y1="110.095192%" x2="280.895485%" y2="-6.43767405%" id="linearGradient-3">
            <stop stop-color="#EC1C24" offset="0%"></stop>
            <stop stop-color="#F4821F" offset="99%"></stop>
        </linearGradient>
        <linearGradient x1="21.740176%" y1="56.9378392%" x2="114.07687%" y2="25.5630779%" id="linearGradient-4">
            <stop stop-color="#EC1C24" offset="0%"></stop>
            <stop stop-color="#F4821F" offset="99%"></stop>
        </linearGradient>
        <linearGradient x1="-358.995167%" y1="146.481259%" x2="126.76146%" y2="30.5028287%" id="linearGradient-5">
            <stop stop-color="#EC1C24" offset="0%"></stop>
            <stop stop-color="#F4821F" offset="99%"></stop>
        </linearGradient>
        <linearGradient x1="-352.623264%" y1="77.4414907%" x2="137.693157%" y2="46.0975852%" id="linearGradient-6">
            <stop stop-color="#EC1C24" offset="0%"></stop>
            <stop stop-color="#F4821F" offset="99%"></stop>
        </linearGradient>
        <linearGradient x1="-110.850661%" y1="85.1587491%" x2="150.011645%" y2="29.1296171%" id="linearGradient-7">
            <stop stop-color="#EC1C24" offset="0%"></stop>
            <stop stop-color="#F4821F" offset="99%"></stop>
        </linearGradient>
    </defs>
    <g id="Page-1" stroke="none" stroke-width="1" fill="none" fill-rule="evenodd">
        <g id="Group-83" fill-rule="nonzero">
            <rect id="Rectangle-94" fill="#FFFFFF" x="0" y="0" width="256" height="256"></rect>
            <g id="logo-shinho" transform="translate(3.000000, 71.000000)">
                <path d="M80.3700227,107.909225 C85.1268181,105.712552 89.4872138,102.816938 93.45121,99.4220793 C93.5503099,99.3222307 93.6494099,99.122533 93.5503099,99.0226844 C93.0548104,98.0241966 92.5593109,97.1255576 91.9647115,96.2269187 L86.6133167,88.9379584 C86.5142167,88.7382609 86.3160169,88.7382609 86.1178171,88.8381097 C86.0187172,88.9379584 85.9196173,89.0378072 85.9196173,89.137656 C85.9196173,89.2375047 85.9196173,89.3373535 85.9196173,89.3373535 C86.0187172,96.0272212 83.8385193,102.417542 79.7754232,107.709527 C79.6763233,107.809376 79.6763233,107.909225 79.7754232,108.009074 L79.8745231,108.108923 C80.0727229,108.108923 80.2709227,108.009074 80.3700227,107.909225 Z" id="Shape" fill="url(#linearGradient-1)"></path>
                <path d="M76.8024261,75.6580719 L75.3159275,73.5612476 L73.8294289,75.558223 L73.7303291,75.6580719 C67.5861349,84.6444612 68.1807344,96.6263138 75.3159275,104.913762 C82.3520207,96.7261626 83.0457201,84.74431 77.0006259,75.7579207 L76.8024261,75.6580719 Z" id="Shape" fill="#FAA81E"></path>
                <path d="M82.4511206,53.0922496 C82.4511206,49.0982987 79.2799237,45.7034404 75.3159275,45.5037429 L75.2168276,45.5037429 C71.0546317,45.7034404 67.8834347,49.2979962 68.0816344,53.4916446 C68.1807344,54.8895274 68.577134,56.1875614 69.3699332,57.3857467 L74.820428,64.7745558 C75.0186278,64.9742533 75.3159275,65.0741021 75.5141274,64.8744046 L75.6132272,64.7745558 L81.063722,57.4855954 C81.9556211,56.0877127 82.4511206,54.5899811 82.4511206,53.0922496 Z" id="Shape" fill="url(#linearGradient-2)"></path>
                <path d="M64.4149381,30.9258223 C67.1897353,26.7321739 66.1987363,21.1406427 62.0365403,18.3448772 C60.6491416,17.4462381 59.0635432,16.8471455 57.4779447,16.7472967 L57.3788447,16.7472967 C52.4238495,17.0468432 48.5589533,21.3403402 48.8562529,26.3327788 C48.9553529,27.9303591 49.4508524,29.5279394 50.4418515,30.9258223 L50.4418515,31.0256711 L56.8833452,39.8123629 C57.0815451,40.1119092 57.4779447,40.1119092 57.6761445,40.0120606 C57.7752443,40.0120606 57.7752443,39.9122117 57.8743443,39.8123629 L64.4149381,30.9258223 L64.4149381,30.9258223 Z" id="Shape" fill="url(#linearGradient-3)"></path>
                <path d="M37.9552635,75.7579207 C30.5227707,86.5415879 33.1984681,101.419055 43.9012578,109.007561 C45.5859562,110.205747 47.4688544,111.204234 49.4508524,111.903176 C49.847252,112.003025 50.2436516,111.903176 50.4418515,111.503781 C50.4418515,111.403932 50.5409514,111.204234 50.4418515,111.104386 C49.7481521,106.211796 50.5409514,101.219357 52.7211493,96.7261626 L52.7211493,96.6263138 L54.7031473,93.2314555 L54.7031473,93.1316069 L72.2438305,69.467448 L57.9734442,50.1966351 C57.7752443,49.8970888 57.2797449,49.7972401 56.9824451,49.9969376 C56.8833452,49.9969376 56.8833452,50.0967864 56.7842454,50.1966351 L37.9552635,75.7579207 Z" id="Shape" fill="#FAA81E"></path>
                <path d="M28.8380722,89.3373535 C28.8380722,84.9440076 29.8290713,80.7503591 31.7119695,76.7564084 C32.4056688,75.3585255 33.1984681,74.0604915 33.9912673,72.7624575 L54.5049476,45.1043478 C54.6040475,45.004499 54.6040475,44.8048015 54.5049476,44.7049527 L47.2706545,34.9197732 L46.5769552,33.9212854 C42.1174595,27.6308128 43.603958,18.9439698 49.847252,14.450775 C52.0274499,12.8531947 54.7031473,11.9545558 57.4779447,11.854707 L57.5770446,11.854707 C65.1086373,12.1542533 71.1537315,18.5445747 70.8564318,26.2329301 C70.7573319,28.9288468 69.8654327,31.6247637 68.2798343,33.9212854 L67.5861349,34.9197732 L60.351842,44.7049527 C60.252742,44.8048015 60.252742,45.004499 60.351842,45.1043478 L63.3248391,49.1981475 C63.423939,49.2979962 63.6221387,49.397845 63.7212387,49.2979962 L63.8203386,49.1981475 C65.405937,44.3055576 69.7663329,41.0105481 74.820428,40.7110018 L75.5141274,40.7110018 C80.5682224,41.0105481 85.0277181,44.4054064 86.6133167,49.2979962 C86.7124166,49.4976938 86.8115164,49.5975425 87.0097163,49.4976938 C87.1088162,49.4976938 87.1088162,49.397845 87.1088162,49.397845 L90.1809132,45.3040453 C90.2800132,45.2041966 90.2800132,45.004499 90.1809132,44.9046503 L82.153821,34.0211342 C77.6943253,27.7306616 79.2799237,18.9439698 85.5232177,14.5506238 C87.0097163,13.4522873 88.7935146,12.753346 90.5773128,12.3539509 C90.7755126,12.3539509 90.8746125,12.1542533 90.7755126,11.9545558 C90.7755126,11.854707 90.6764128,11.854707 90.6764128,11.7548582 C77.7934252,1.67013233 61.2437411,-2.12412098 45.2886564,1.17088847 C23.3875775,5.5642344 6.14419408,22.738223 1.68469838,44.8048015 C-3.96399618,71.8638185 10.5045899,99.0226844 35.9732653,109.307108 C36.1714652,109.406957 36.2705651,109.307108 36.3696649,109.10741 C36.3696649,109.007561 36.3696649,108.907713 36.2705651,108.807864 C31.5137696,103.515879 28.8380722,96.526465 28.8380722,89.3373535 Z" id="Shape" fill="url(#linearGradient-4)"></path>
                <path d="M71.4510313,108.608166 C71.649231,108.508318 71.649231,108.208771 71.5501312,108.108923 L71.5501312,108.108923 C67.0906355,102.916786 64.7122377,96.2269187 64.7122377,89.4372023 C64.7122377,89.3373535 64.7122377,89.2375047 64.7122377,89.137656 C64.7122377,88.9379584 64.5140379,88.7382609 64.3158381,88.7382609 C64.2167382,88.7382609 64.1176383,88.8381097 64.0185383,88.9379584 L58.7662434,96.0272212 C55.2977468,100.919811 54.2076478,107.110435 55.7932463,112.901663 C55.7932463,113.101361 55.9914461,113.20121 56.090546,113.20121 C56.4869456,113.20121 56.8833452,113.20121 57.3788447,113.20121 L57.8743443,113.20121 C62.7302396,113.101361 67.4870351,111.503781 71.4510313,108.608166 Z" id="Shape" fill="#FAA81E"></path>
                <path d="M84.5322186,25.833535 C84.5322186,27.6308128 85.0277181,29.4280908 86.1178171,30.9258223 L92.6584108,39.8123629 C92.8566107,40.1119092 93.2530103,40.1119092 93.45121,40.0120606 C93.5503099,40.0120606 93.5503099,39.9122117 93.6494099,39.8123629 L100.190004,30.9258223 C102.172002,27.9303591 102.271102,24.1361059 100.388203,21.0407939 L100.388203,20.9409452 C99.8927039,20.2420038 99.2981044,19.6429112 98.703505,18.9439698 L98.6044051,18.844121 C97.1179065,17.546087 95.2350083,16.7472967 93.1539103,16.647448 L93.0548104,16.647448 C88.298015,17.0468432 84.5322186,21.0407939 84.5322186,25.833535 Z" id="Shape" fill="url(#linearGradient-5)"></path>
                <path d="M104.0549,33.9212854 L103.262101,34.9197732 L96.0278076,44.7049527 C95.9287077,44.8048015 95.9287077,45.004499 96.0278076,45.2041966 L111.388293,65.972741 C111.487393,66.1724386 111.784692,66.1724386 111.982892,66.0725898 C112.081992,65.972741 112.081992,65.8728923 112.181092,65.7730435 C114.16309,53.6913422 112.181092,41.3100946 106.532397,30.5264272 C106.433298,30.3267297 106.235098,30.2268809 106.036898,30.3267297 C105.937798,30.3267297 105.838698,30.4265785 105.838698,30.5264272 C105.442299,31.7246125 104.847699,32.8229489 104.0549,33.9212854 Z" id="Shape" fill="url(#linearGradient-6)"></path>
                <path d="M93.8476097,50.3963327 C93.5503099,49.9969376 92.9557106,49.8970888 92.5593109,50.1966351 C92.4602111,50.2964839 92.4602111,50.2964839 92.3611111,50.3963327 L78.3880245,69.467448 L95.0368086,92.1331191 C95.0368086,92.1331191 96.4242072,94.1300946 96.7215069,94.6293384 C97.0188066,95.0287335 97.5143061,95.228431 97.9107057,94.9288847 C98.0098056,94.9288847 98.0098056,94.8290359 98.1089056,94.7291872 C103.6585,88.5385634 107.820696,81.249603 110.298194,73.2617013 C110.397294,72.962155 110.298194,72.6626087 110.099994,72.3630624 L93.8476097,50.3963327 Z" id="Shape" fill="url(#linearGradient-7)"></path>
                <path d="M146.46966,57.9848394 C144.78496,58.084688 143.001162,57.6852931 141.415564,56.9863516 C140.226366,56.387259 139.136266,55.48862 138.244367,54.4901323 C137.947068,54.190586 137.847967,53.8910397 137.748867,53.4916446 C137.748867,53.0922496 137.847967,52.6928545 138.244367,52.3933082 L139.235366,51.3948204 C139.532666,51.0952741 139.829965,50.9954253 140.226366,50.8955765 L140.325465,50.8955765 C140.721864,50.8955765 141.019165,51.0952741 141.316464,51.3948204 L142.208363,52.0937619 C142.505662,52.3933082 142.902063,52.5930056 143.298463,52.7927033 C143.694862,52.9924008 144.190362,53.1920983 144.685861,53.2919471 C145.28046,53.3917959 145.87506,53.4916446 146.46966,53.4916446 C147.757958,53.5914934 149.046257,53.0922496 150.037256,52.2934593 C150.929155,51.5945179 151.424654,50.4961815 151.424654,49.2979962 C151.523754,48.099811 151.028254,46.9016258 150.136355,46.0029867 C148.947157,44.9046503 147.559758,44.0060113 146.073259,43.4069187 C144.983161,42.9076749 143.893061,42.3085823 142.902063,41.6096409 C142.010164,41.0105481 141.118265,40.3116069 140.424565,39.5128166 C139.730866,38.7140264 139.235366,37.8153875 138.838967,36.8168998 C138.442567,35.7185634 138.244367,34.520378 138.343467,33.3221928 C138.343467,32.2238563 138.541666,31.1255199 138.938066,30.2268809 C139.334466,29.2283931 139.929065,28.3297542 140.721864,27.5309641 C141.514664,26.7321739 142.505662,26.1330813 143.595762,25.6338374 C146.271459,24.535501 149.343556,24.7351985 151.920153,25.9333837 C153.010253,26.5324764 154.001252,27.2314177 154.99225,28.1300567 C155.58685,28.5294519 155.68595,29.4280908 155.289551,30.0271834 C155.190451,30.1270322 155.09135,30.2268809 154.99225,30.3267297 L153.902152,31.4250662 C153.604853,31.7246125 153.307552,31.92431 152.911153,31.92431 C152.514753,31.92431 152.118354,31.7246125 151.821054,31.4250662 C151.226455,30.9258223 150.631855,30.5264272 149.938156,30.1270322 C149.145357,29.6277883 148.154358,29.4280908 147.262459,29.4280908 C146.667859,29.4280908 145.97416,29.5279394 145.37956,29.7276371 C144.88406,29.9273346 144.388561,30.2268809 143.893061,30.626276 C143.496662,30.9258223 143.100262,31.4250662 142.902063,31.92431 C142.703863,32.4235539 142.604762,32.9227977 142.604762,33.4220416 C142.604762,34.0211342 142.703863,34.6202268 142.902063,35.2193195 C143.100262,35.7185634 143.397561,36.2178072 143.793962,36.6172023 C144.289461,37.1164461 144.78496,37.5158412 145.37956,37.9152363 C146.172359,38.4144801 146.965158,38.8138752 147.857057,39.1134215 C149.046257,39.6126654 150.136355,40.211758 151.325555,40.9106995 C152.316553,41.5097921 153.109353,42.2087335 153.902152,43.0075236 C154.595851,43.8063138 155.09135,44.7049527 155.48775,45.7034404 C155.884149,46.801777 156.08235,47.9999622 155.98325,49.1981475 C155.98325,50.3963327 155.68595,51.5945179 155.190451,52.5930056 C154.694951,53.6913422 154.001252,54.5899811 153.109353,55.3887713 C152.217454,56.1875614 151.127354,56.8865028 150.037256,57.3857467 C148.848056,57.8849905 147.559758,58.084688 146.271459,58.084688" id="Shape" fill="#D71F45"></path>
                <path d="M160.343645,57.4855954 C159.550846,57.5854442 158.857147,56.9863516 158.857147,56.1875614 C158.857147,56.0877127 158.857147,55.9878639 158.857147,55.9878639 L158.857147,26.4326276 C158.758047,25.6338374 159.352647,24.934896 160.145446,24.934896 C160.244546,24.934896 160.343645,24.934896 160.343645,24.934896 L161.731044,24.934896 C162.523844,24.8350473 163.217543,25.4341399 163.217543,26.2329301 C163.217543,26.3327788 163.217543,26.4326276 163.217543,26.5324764 L163.217543,40.8108507 L163.217543,56.0877127 C163.217543,56.4871077 163.019343,56.8865028 162.722043,57.1860491 C162.424744,57.4855954 162.028344,57.5854442 161.631945,57.5854442 L160.343645,57.4855954 Z" id="Shape" fill="#D71F45"></path>
                <path d="M173.623033,57.4855954 C172.830233,57.5854442 172.136534,56.9863516 172.136534,56.1875614 C172.136534,56.0877127 172.136534,55.9878639 172.136534,55.9878639 L172.136534,44.0060113 C172.235635,43.0075236 171.839235,42.0090359 171.145535,41.3100946 C170.451836,40.6111532 169.460837,40.211758 168.469838,40.3116069 L165.199542,40.3116069 L165.199542,36.1179584 L168.668038,36.1179584 C169.758136,36.1179584 170.848236,36.317656 171.839235,36.7170511 C172.731134,37.1164461 173.623033,37.61569 174.316732,38.3146314 C175.010432,39.0135728 175.605031,39.9122117 175.902331,40.8108507 C176.298731,41.8093384 176.49693,42.9076749 176.49693,44.0060113 L176.49693,55.9878639 C176.59603,56.786654 176.00143,57.4855954 175.208631,57.4855954 C175.109531,57.4855954 175.010432,57.4855954 175.010432,57.4855954 L173.623033,57.4855954 Z" id="Shape" fill="#D71F45"></path>
                <path d="M180.857325,33.9212854 C180.064526,34.0211342 179.370828,33.4220416 179.370828,32.6232514 C179.370828,32.5234026 179.370828,32.4235539 179.370828,32.4235539 L179.370828,30.0271834 C179.370828,29.2283931 179.965426,28.6293005 180.758226,28.5294519 C180.857325,28.5294519 180.857325,28.5294519 180.956426,28.5294519 L182.343824,28.5294519 C183.136623,28.429603 183.830323,29.0286957 183.830323,29.8274859 C183.830323,29.9273346 183.830323,30.0271834 183.830323,30.1270322 L183.830323,32.5234026 C183.929424,33.3221928 183.334824,34.0211342 182.542025,34.0211342 C182.442925,34.0211342 182.343824,34.0211342 182.343824,34.0211342 L180.857325,33.9212854 Z M180.857325,57.5854442 C180.064526,57.6852931 179.370828,57.0862003 179.370828,56.2874102 C179.370828,56.1875614 179.370828,56.0877127 179.370828,56.0877127 L179.370828,37.7155388 C179.271727,36.9167486 179.866327,36.2178072 180.659126,36.2178072 C180.758226,36.2178072 180.857325,36.2178072 180.857325,36.2178072 L182.244724,36.2178072 C183.037524,36.1179584 183.731223,36.7170511 183.731223,37.5158412 C183.731223,37.61569 183.731223,37.7155388 183.731223,37.7155388 L183.731223,56.0877127 C183.830323,56.8865028 183.235724,57.5854442 182.442925,57.5854442 C182.343824,57.5854442 182.244724,57.5854442 182.244724,57.5854442 L180.857325,57.5854442 Z" id="Shape" fill="#D71F45"></path>
                <path d="M201.172807,57.4855954 C200.380008,57.5854442 199.686308,56.9863516 199.686308,56.1875614 C199.686308,56.0877127 199.686308,55.9878639 199.686308,55.8880151 L199.686308,44.3055576 C199.686308,43.2072212 199.289908,42.1088847 198.596209,41.2102458 C196.812411,39.5128166 193.938513,39.5128166 192.154715,41.2102458 C191.461016,42.1088847 191.064617,43.1073724 191.064617,44.3055576 L191.064617,56.0877127 C191.163716,56.8865028 190.569117,57.5854442 189.776317,57.5854442 C189.677218,57.5854442 189.677218,57.5854442 189.578118,57.5854442 L188.190719,57.5854442 C187.39792,57.6852931 186.70422,57.0862003 186.70422,56.2874102 C186.70422,56.1875614 186.70422,56.0877127 186.70422,56.0877127 L186.70422,44.3055576 C186.70422,43.2072212 186.90242,42.1088847 187.29882,41.0105481 C188.091619,38.913724 189.776317,37.3161437 191.857416,36.4175047 C194.136714,35.5188658 196.713311,35.5188658 198.992609,36.4175047 C202.163806,37.7155388 204.145803,40.9106995 204.145803,44.3055576 L204.145803,56.0877127 C204.244903,56.8865028 203.650304,57.5854442 202.857505,57.5854442 C202.758404,57.5854442 202.659306,57.5854442 202.659306,57.5854442 L201.172807,57.4855954 Z" id="Shape" fill="#D71F45"></path>
                <path d="M238.236171,39.9122117 C237.344272,39.9122117 236.452373,40.1119092 235.560474,40.4114555 C234.767675,40.8108507 234.073975,41.3100946 233.479375,41.9091872 C232.884776,42.5082798 232.389276,43.3070699 232.091977,44.1058601 C231.398277,45.8032892 231.398277,47.8002647 232.091977,49.4976938 C232.389276,50.2964839 232.884776,51.0952741 233.479375,51.6943667 C234.073975,52.2934593 234.767675,52.7927033 235.560474,53.1920983 C237.245172,53.8910397 239.12807,53.8910397 240.812768,53.1920983 C241.605567,52.7927033 242.299267,52.2934593 242.893866,51.6943667 C243.488466,51.0952741 243.983965,50.2964839 244.281265,49.4976938 C244.974965,47.8002647 244.974965,45.8032892 244.281265,44.1058601 C243.983965,43.3070699 243.488466,42.5082798 242.893866,41.9091872 C242.299267,41.3100946 241.605567,40.8108507 240.812768,40.4114555 C240.019969,40.1119092 239.12807,39.9122117 238.236171,39.9122117 M238.236171,57.9848394 C236.749672,57.9848394 235.263173,57.6852931 233.974874,57.0862003 C231.299177,55.9878639 229.218079,53.791191 228.12798,51.1951228 C226.938781,48.3993573 226.938781,45.3040453 228.12798,42.5082798 C229.218079,39.8123629 231.398277,37.7155388 233.974874,36.6172023 C236.749672,35.4190171 239.821769,35.4190171 242.596567,36.6172023 C245.272264,37.7155388 247.353362,39.9122117 248.443461,42.5082798 C249.632659,45.3040453 249.632659,48.3993573 248.443461,51.1951228 C247.353362,53.8910397 245.173164,55.9878639 242.596567,57.0862003 C241.209168,57.6852931 239.722669,57.9848394 238.236171,57.9848394" id="Shape" fill="#D71F45"></path>
                <path d="M208.208899,57.4855954 C207.416101,57.5854442 206.7224,56.9863516 206.7224,56.1875614 C206.7224,56.0877127 206.7224,55.9878639 206.7224,55.9878639 L206.7224,26.4326276 C206.623302,25.6338374 207.2179,24.934896 208.0107,24.934896 C208.109799,24.934896 208.208899,24.934896 208.208899,24.934896 L209.596298,24.934896 C210.389097,24.8350473 211.082797,25.4341399 211.082797,26.2329301 C211.082797,26.3327788 211.082797,26.4326276 211.082797,26.5324764 L211.082797,56.0877127 C211.181896,56.8865028 210.587298,57.5854442 209.794499,57.5854442 C209.695398,57.5854442 209.596298,57.5854442 209.497198,57.5854442 L208.208899,57.4855954 Z" id="Shape" fill="#D71F45"></path>
                <path d="M221.686487,57.4855954 C220.893688,57.5854442 220.199988,56.9863516 220.199988,56.1875614 C220.199988,56.0877127 220.199988,55.9878639 220.199988,55.9878639 L220.199988,44.0060113 C220.299088,43.0075236 219.902689,42.0090359 219.208988,41.3100946 C218.51529,40.6111532 217.52429,40.211758 216.533291,40.3116069 L213.262995,40.3116069 L213.262995,36.1179584 L216.731491,36.1179584 C217.821591,36.1179584 218.911689,36.317656 219.902689,36.7170511 C220.794588,37.1164461 221.686487,37.61569 222.380186,38.3146314 C223.073886,39.0135728 223.668484,39.9122117 223.965785,40.8108507 C224.362184,41.8093384 224.560383,42.9076749 224.560383,44.0060113 L224.560383,55.9878639 C224.659484,56.786654 224.064885,57.4855954 223.272085,57.4855954 C223.172986,57.4855954 223.073886,57.4855954 222.974785,57.4855954 L221.686487,57.4855954 Z" id="Shape" fill="#D71F45"></path>
                <path d="M179.569027,90.1361437 C179.469928,89.9364461 179.370828,89.8365974 178.776228,89.6368998 C178.379828,89.5370511 178.082529,89.3373535 177.68613,89.137656 C173.920333,87.0408317 172.929333,84.6444612 171.641035,81.249603 C171.641035,81.1497542 171.541934,81.1497542 171.541934,81.1497542 C171.442836,81.1497542 171.442836,81.249603 171.442836,81.249603 C170.947336,83.0468809 170.352736,84.74431 169.460837,86.3418903 L169.460837,86.4417391 C170.848236,89.2375047 173.127534,91.5340264 176.00143,92.9319092 L176.00143,92.9319092 C176.49693,93.1316069 176.99243,93.3313043 177.487929,93.4311532 C177.884329,93.5310018 178.280728,93.5310018 178.578029,93.3313043 C178.875328,93.1316069 179.172627,92.7322117 179.271727,92.4326654 L179.569027,91.1346314 C179.767227,90.43569 179.668127,90.3358412 179.569027,90.1361437" id="Shape" fill="#EE4632"></path>
                <path d="M157.073349,75.9576182 C157.370648,75.6580719 157.469749,75.2586767 157.469749,74.8592816 L157.469749,73.4613989 C157.568849,72.7624575 156.974249,72.0635161 156.28055,71.9636673 C156.18145,71.9636673 156.08235,71.9636673 155.98325,71.9636673 L143.595762,71.9636673 L143.595762,69.9666918 C143.496662,68.568809 144.487661,67.3706238 145.87506,67.3706238 C145.97416,67.3706238 146.172359,67.3706238 146.271459,67.3706238 L153.208452,67.3706238 C154.397652,67.3706238 155.48775,66.87138 156.28055,66.0725898 C156.974249,65.3736484 157.568849,63.0771266 156.379649,63.0771266 L146.271459,63.0771266 C142.505662,62.8774291 139.433565,65.8728923 139.235366,69.5672967 C139.235366,69.6671455 139.235366,69.7669944 139.235366,69.9666918 L139.235366,92.3328166 C139.136266,93.031758 139.730866,93.7306995 140.424565,93.8305481 C140.523665,93.8305481 140.622765,93.8305481 140.622765,93.8305481 L142.010164,93.8305481 C142.802963,93.930397 143.397561,93.3313043 143.496662,92.5325141 C143.496662,92.4326654 143.496662,92.4326654 143.496662,92.3328166 L143.496662,76.3570133 L149.244456,76.3570133 L149.244456,92.3328166 C149.145357,93.1316069 149.739956,93.7306995 150.532755,93.8305481 C150.631855,93.8305481 150.631855,93.8305481 150.730955,93.8305481 L152.118354,93.8305481 C152.812053,93.930397 153.505753,93.3313043 153.604853,92.6323629 C153.604853,92.5325141 153.604853,92.4326654 153.604853,92.3328166 L153.604853,76.3570133 L156.08235,76.3570133 C156.379649,76.3570133 156.776049,76.2571645 157.073349,75.9576182" id="Shape" fill="#EE4632"></path>
                <path d="M170.848236,75.2586767 C170.848236,74.1603402 170.848236,73.3615501 170.848236,73.3615501 L170.848236,68.169414 L174.514932,68.169414 L174.514932,75.1588279 L174.514932,75.1588279 L174.514932,75.4583742 C174.415832,76.1573156 175.010432,76.8562571 175.704131,76.9561059 C175.803231,76.9561059 175.902331,76.9561059 175.902331,76.9561059 L177.289729,76.9561059 C178.082529,77.0559547 178.677128,76.4568619 178.776228,75.6580719 C178.776228,75.558223 178.776228,75.558223 178.776228,75.4583742 L178.776228,68.3691115 C178.776228,66.1724386 176.99243,64.4750095 174.812232,64.4750095 L163.911242,64.4750095 L163.911242,62.478034 C163.911242,62.1784877 163.713043,61.8789414 163.514842,61.6792438 C163.217543,61.3796975 162.821143,61.2798488 162.424744,61.2798488 L161.037345,61.2798488 C160.640946,61.2798488 160.244546,61.3796975 159.947246,61.6792438 C159.749047,61.8789414 159.550846,62.1784877 159.550846,62.478034 L159.550846,77.5551985 C159.451746,78.3539887 160.046346,78.9530813 160.839145,79.0529301 C160.938245,79.0529301 160.938245,79.0529301 161.037345,79.0529301 L162.424744,79.0529301 C163.217543,79.1527788 163.812143,78.5536862 163.911242,77.754896 C163.911242,77.6550473 163.911242,77.6550473 163.911242,77.5551985 L163.911242,77.4553497 L163.911242,77.4553497 L163.911242,68.2692627 L167.379739,68.2692627 L167.379739,73.4613989 C167.379739,73.5612476 167.379739,84.5446125 160.839145,88.3388658 C160.640946,88.4387146 160.442745,88.5385634 160.145446,88.7382609 C159.947246,88.8381097 159.649946,88.9379584 159.352647,89.0378072 L158.857147,89.2375047 C158.460748,89.3373535 158.163447,89.5370511 157.965248,89.8365974 C157.767048,90.2359924 157.767048,90.6353875 157.767048,91.0347826 L157.965248,92.3328166 C158.064348,92.7322117 158.262548,93.031758 158.658947,93.2314555 C159.055346,93.4311532 159.451746,93.4311532 159.848147,93.3313043 C164.406741,91.733724 167.577938,88.1391683 169.460837,82.7473346 C170.154536,80.2511153 170.650035,77.754896 170.848236,75.2586767" id="Shape" fill="#EE4632"></path>
                <path d="M204.641303,72.962155 C204.344004,72.6626087 203.947604,72.5627599 203.551205,72.5627599 L196.118711,72.5627599 L196.118711,67.3706238 L200.875507,67.3706238 C202.064706,67.4704726 203.154804,66.9712287 203.947604,66.2722873 C204.641303,65.573346 205.235903,63.1769754 204.046703,63.1769754 L185.415921,63.1769754 C184.722223,63.0771266 184.028522,63.6762192 183.929424,64.3751606 C183.929424,64.4750095 183.929424,64.5748583 183.929424,64.6747069 L183.929424,66.0725898 C183.830323,66.87138 184.424922,67.4704726 185.217722,67.5703214 C185.316821,67.5703214 185.316821,67.5703214 185.415921,67.5703214 L191.857416,67.5703214 L191.857416,72.6626087 L185.217722,72.6626087 C184.524022,72.5627599 183.830323,73.1618525 183.731223,73.8607939 C183.731223,73.9606427 183.731223,74.0604915 183.731223,74.0604915 L183.731223,75.4583742 C183.632123,76.2571645 184.226723,76.8562571 185.019522,76.9561059 C185.118622,76.9561059 185.118622,76.9561059 185.217722,76.9561059 L191.857416,76.9561059 L191.857416,77.8547448 C191.857416,79.8517202 185.812321,85.9424953 183.235724,86.4417391 L182.938424,86.5415879 C182.641124,86.6414366 182.244724,86.8411342 182.046525,87.0408317 C181.848325,87.340378 181.749225,87.7397732 181.848325,88.1391683 L182.046525,89.4372023 C182.046525,89.8365974 182.343824,90.2359924 182.641124,90.43569 C182.740224,90.5355388 182.839324,90.5355388 183.037524,90.5355388 C183.235724,90.5355388 183.533023,90.5355388 183.830323,90.5355388 C187.794319,89.8365974 191.857416,85.2435539 191.857416,85.2435539 L191.857416,92.4326654 C191.857416,92.8320606 191.956516,93.2314555 192.253815,93.5310018 C192.551114,93.8305481 192.947514,93.930397 193.343913,93.930397 L194.731312,93.930397 C195.524112,94.0302458 196.118711,93.4311532 196.217811,92.6323629 C196.217811,92.5325141 196.217811,92.5325141 196.217811,92.4326654 L196.217811,76.8562571 L203.650304,76.8562571 C204.344004,76.9561059 205.037702,76.3570133 205.136803,75.6580719 C205.136803,75.558223 205.136803,75.4583742 205.136803,75.4583742 L205.136803,74.0604915 C205.136803,73.5612476 204.938602,73.2617013 204.641303,72.962155" id="Shape" fill="#EE4632"></path>
                <path d="M220.695487,86.1421928 C220.695487,86.9409829 220.398188,87.7397732 219.803588,88.3388658 C219.208988,88.9379584 218.41619,89.2375047 217.623391,89.2375047 L214.452193,89.2375047 C212.866596,89.3373535 211.479197,88.1391683 211.380097,86.5415879 C211.380097,86.4417391 211.380097,86.3418903 211.380097,86.1421928 L211.380097,71.2647259 C211.380097,70.4659358 211.677396,69.6671455 212.271996,69.0680529 C212.866596,68.4689603 213.659395,68.169414 214.452193,68.169414 L217.623391,68.169414 C219.208988,68.0695652 220.596387,69.2677504 220.695487,70.8653308 C220.695487,70.9651796 220.695487,71.0650284 220.695487,71.2647259 L220.695487,86.1421928 Z M224.163984,68.169414 C223.470285,66.4719849 222.082886,65.0741021 220.398188,64.3751606 C219.506289,63.9757655 218.51529,63.776068 217.52429,63.8759169 L214.353093,63.8759169 C213.362095,63.8759169 212.470196,64.0756143 211.479197,64.3751606 C210.587298,64.6747069 209.893598,65.1739509 209.199899,65.8728923 C208.506199,66.5718337 208.0107,67.3706238 207.7134,68.2692627 C207.416101,69.2677504 207.2179,70.2662381 207.2179,71.2647259 L207.2179,86.3418903 C207.2179,87.340378 207.416101,88.3388658 207.7134,89.2375047 C208.4071,90.9349338 209.794499,92.3328166 211.479197,93.031758 C212.371096,93.4311532 213.362095,93.6308507 214.353093,93.5310018 L217.52429,93.5310018 C218.51529,93.5310018 219.407189,93.3313043 220.398188,93.031758 C221.290087,92.7322117 222.082886,92.1331191 222.677486,91.5340264 C223.371185,90.8350851 223.866685,90.0362949 224.163984,89.137656 C224.560383,88.1391683 224.758584,87.1406805 224.659484,86.1421928 L224.659484,71.1648772 C224.758584,70.1663895 224.560383,69.1679017 224.163984,68.169414 L224.163984,68.169414 Z" id="Shape" fill="#EE4632"></path>
                <path d="M204.244903,86.5415879 L204.244903,86.5415879 C201.767406,84.74431 199.686308,82.4477883 198.19981,79.6520227 C198.19981,79.5521739 198.10071,79.5521739 198.001609,79.5521739 C197.902509,79.5521739 197.902509,79.6520227 197.902509,79.7518714 L197.902509,86.4417391 L197.902509,86.5415879 C199.190808,87.839622 200.578207,89.0378072 202.163806,90.1361437 L202.461105,90.3358412 L202.461105,90.3358412 C202.659306,90.43569 202.758404,90.43569 202.956605,90.43569 C203.055705,90.43569 203.154804,90.43569 203.253904,90.43569 C203.650304,90.3358412 203.947604,90.0362949 204.145803,89.7367486 L204.740403,88.7382609 C205.136803,88.0393195 204.938602,87.2405294 204.344004,86.8411342 C204.344004,86.8411342 204.244903,86.8411342 204.244903,86.7412854" id="Shape" fill="#EE4632"></path>
            </g>
        </g>
    </g>
</svg>