<?xml version="1.0" encoding="UTF-8"?>
<svg width="345px" height="248px" viewBox="0 0 345 248" version="1.1" xmlns="http://www.w3.org/2000/svg" xmlns:xlink="http://www.w3.org/1999/xlink">
    <!-- Generator: Sketch 46.2 (44496) - http://www.bohemiancoding.com/sketch -->
    <title>icon_fail</title>
    <desc>Created with Sketch.</desc>
    <defs></defs>
    <g id="Page-1" stroke="none" stroke-width="1" fill="none" fill-rule="evenodd">
        <g id="开票失败" transform="translate(-193.000000, -313.000000)">
            <g id="icon_fail" transform="translate(193.000000, 308.000000)">
                <g id="Group-2" transform="translate(49.550000, 0.880000)" stroke="#CCCCCC" stroke-linecap="round" stroke-linejoin="round">
                    <path d="M44.1381652,70.5825116 C50.061873,61.9918603 57.2568994,54.3454304 65.4515113,47.914955 C82.9463873,34.1863767 104.997275,26 128.96,26 C185.822749,26 231.92,72.0972512 231.92,128.96 C231.92,185.822749 185.822749,231.92 128.96,231.92 C72.0972512,231.92 26,185.822749 26,128.96 M31.5781359,95.4445504 C31.8866046,94.5481011 32.2071031,93.6572492 32.5394386,92.7721875" id="Stroke-108" stroke-width="6.93" transform="translate(128.960000, 128.960000) rotate(17.000000) translate(-128.960000, -128.960000) "></path>
                    <g id="Group-3" transform="translate(92.000000, 87.000000)" stroke-width="7">
                        <path d="M73.2392,0.516 L0.159177729,82.7310251" id="Stroke-114"></path>
                        <path d="M73.2392,0.516 L0.159177729,82.7310251" id="Stroke-114" transform="translate(36.699189, 41.623513) scale(-1, 1) translate(-36.699189, -41.623513) "></path>
                    </g>
                </g>
                <circle id="Oval-3" fill="#E6E6E6" cx="56.48" cy="243.43" r="7.92"></circle>
                <circle id="Oval-3-Copy-4" fill="#E6E6E6" cx="63.905" cy="217.195" r="3.465"></circle>
                <circle id="Oval-3-Copy-5" fill="#E6E6E6" cx="290.615" cy="230.065" r="3.465"></circle>
                <circle id="Oval-3-Copy-6" fill="#E6E6E6" cx="341.105" cy="162.745" r="3.465"></circle>
                <circle id="Oval-3-Copy-3" fill="#E6E6E6" cx="302.99" cy="247.39" r="4.95"></circle>
                <circle id="Oval-3-Copy" fill="#E6E6E6" cx="332.69" cy="13.75" r="7.92"></circle>
                <circle id="Oval-3-Copy-2" fill="#E6E6E6" cx="5" cy="108.79" r="4.95"></circle>
            </g>
        </g>
    </g>
</svg>