<?xml version="1.0" encoding="UTF-8"?>
<svg width="15px" height="14px" viewBox="0 0 15 14" version="1.1" xmlns="http://www.w3.org/2000/svg" xmlns:xlink="http://www.w3.org/1999/xlink">
    <!-- Generator: Sketch 46.2 (44496) - http://www.bohemiancoding.com/sketch -->
    <title>icon_角标（未激活）</title>
    <desc>Created with Sketch.</desc>
    <defs></defs>
    <g id="Page-1" stroke="none" stroke-width="1" fill="none" fill-rule="evenodd">
        <g id="开发票_企业" transform="translate(-882.000000, -175.000000)">
            <g id="Group-20" transform="translate(544.000000, 131.000000)">
                <g id="Group-4" transform="translate(225.000000, 44.000000)">
                    <g id="Group-19-Copy-3">
                        <g id="Group-18" transform="translate(113.000000, 0.000000)">
                            <g id="icon_角标（未激活）">
                                <path d="M2,0 L13.0236526,0 L13.0236526,-1.88737914e-15 C13.5759374,-1.9888322e-15 14.0236526,0.44771525 14.0236526,1 C14.0236526,1.26521486 13.9182971,1.51956735 13.7307627,1.70710346 L1.7071101,13.730869 L1.7071101,13.730869 C1.31658764,14.1213952 0.683422666,14.1213981 0.29289654,13.7308757 C0.10535813,13.543339 2.50200331e-15,13.2889837 1.99840144e-15,13.0237656 L0,2 L-2.22044605e-16,2 C-3.57315355e-16,0.8954305 0.8954305,-1.91384796e-17 2,-2.22044605e-16 Z" id="Triangle-2" fill="#CCCCCC" transform="translate(7.011826, 7.011883) scale(-1, 1) translate(-7.011826, -7.011883) "></path>
                                <path d="M6.53569483,4.35181913 C6.24579476,4.05596304 5.77094557,4.05113474 5.47508949,4.34103481 C5.1792334,4.63093488 5.1744051,5.10578407 5.46430517,5.40164016 L7.544831,7.52491051 C7.83890847,7.82502983 8.32214319,7.82502983 8.61622066,7.52491051 L12.5356948,3.52491051 C12.8255949,3.22905443 12.8207666,2.75420524 12.5249105,2.46430517 C12.2290544,2.1744051 11.7542052,2.1792334 11.4643052,2.47508949 L8.08052583,5.92838877 L6.53569483,4.35181913 Z" id="Path-3" fill="#FFFFFF" fill-rule="nonzero"></path>
                            </g>
                        </g>
                    </g>
                </g>
            </g>
        </g>
    </g>
</svg>