<?xml version="1.0" encoding="UTF-8"?>
<svg width="30px" height="30px" viewBox="0 0 30 30" version="1.1" xmlns="http://www.w3.org/2000/svg" xmlns:xlink="http://www.w3.org/1999/xlink">
    <!-- Generator: Sketch 46.2 (44496) - http://www.bohemiancoding.com/sketch -->
    <title>icon_details(2)</title>
    <desc>Created with Sketch.</desc>
    <defs>
        <polygon id="path-1" points="0.00221402214 0.0295208845 0.00221402214 29.963145 29.9704428 29.963145 29.9704428 0.0295208845"></polygon>
    </defs>
    <g id="Page-1" stroke="none" stroke-width="1" fill="none" fill-rule="evenodd">
        <g id="开具发票_企业抬头" transform="translate(-147.000000, -275.000000)">
            <g id="Group-9" transform="translate(147.000000, 275.000000)">
                <g id="icon_details(2)">
                    <mask id="mask-2" fill="white">
                        <use xlink:href="#path-1"></use>
                    </mask>
                    <g id="Clip-2"></g>
                    <path d="M6.68531365,0.0295208845 C2.99309963,0.0295208845 0,3.01636364 0,6.70087224 C0,10.385344 2.99309963,13.3721867 6.68531365,13.3721867 L13.3704797,13.3721867 L13.3704797,6.70087224 C13.3704797,3.01636364 10.3773801,0.0295208845 6.68531365,0.0295208845 Z M23.2851292,1.23637592 C24.7483395,1.23637592 26.1238745,1.80490172 27.1583764,2.83728501 C28.1926199,3.86937346 28.7621033,5.24148649 28.7621033,6.70087224 C28.7621033,8.16022113 28.1926199,9.53237101 27.1583764,10.5644595 C26.1238745,11.5968059 24.7483395,12.1653317 23.2851292,12.1653317 L17.8081919,12.1653317 L17.8081919,6.70087224 C17.8081919,5.24148649 18.3778229,3.86937346 19.4120295,2.83728501 C20.4465683,1.80490172 21.8221033,1.23637592 23.2851292,1.23637592 L23.2851292,1.23637592 Z M23.2851292,0.0295208845 C19.592952,0.0295208845 16.5999631,3.01636364 16.5999631,6.70087224 L16.5999631,13.3721867 L23.2851292,13.3721867 C26.9773432,13.3721867 29.9704428,10.385344 29.9704428,6.70087224 C29.9704428,3.01636364 26.9773432,0.0295208845 23.2851292,0.0295208845 Z M23.2851292,29.963145 C26.9773432,29.963145 29.9704428,26.9763022 29.9704428,23.2918305 C29.9704428,19.6073219 26.9773432,16.6204791 23.2851292,16.6204791 L16.5999631,16.6204791 L16.5999631,23.2918305 C16.5999631,26.9763022 19.592952,29.963145 23.2851292,29.963145 Z M6.68531365,29.963145 C2.99309963,29.963145 0,26.9763022 0,23.2918305 C0,19.6073219 2.99309963,16.6204791 6.68531365,16.6204791 L13.3704797,16.6204791 L13.3704797,23.2918305 C13.3704797,26.9763022 10.3773801,29.963145 6.68531365,29.963145 Z" id="Fill-1" fill="#E14E2E" mask="url(#mask-2)"></path>
                </g>
            </g>
        </g>
    </g>
</svg>