<?xml version="1.0" encoding="UTF-8"?>
<svg width="44px" height="40px" viewBox="0 0 44 40" version="1.1" xmlns="http://www.w3.org/2000/svg" xmlns:xlink="http://www.w3.org/1999/xlink">
    <!-- Generator: Sketch 46.2 (44496) - http://www.bohemiancoding.com/sketch -->
    <title>icon_refresh</title>
    <desc>Created with Sketch.</desc>
    <defs>
        <polygon id="path-1" points="0.0042172524 0.057691352 0.0042172524 40 43.9301914 40 43.9301914 0.057691352"></polygon>
    </defs>
    <g id="Page-1" stroke="none" stroke-width="1" fill="none" fill-rule="evenodd">
        <g id="提取码开票_输入前" transform="translate(-671.000000, -378.000000)">
            <g id="icon_refresh" transform="translate(671.000000, 378.000000)">
                <mask id="mask-2" fill="white">
                    <use xlink:href="#path-1"></use>
                </mask>
                <g id="Clip-2"></g>
                <path d="M40.2857252,17.474767 C39.7303131,17.474767 39.2286709,17.0858781 39.0982875,16.5109677 C38.0324473,11.8100358 35.2395719,7.81863799 31.2340256,5.27132616 C27.2454888,2.73491039 22.5301789,1.93663082 17.952984,3.02057348 C11.4683962,4.55784946 6.43953355,9.62222222 4.82791054,16.2349104 C4.66477316,16.9021505 3.99900958,17.2997849 3.3490607,17.1429391 C2.69482428,16.9763441 2.29671565,16.3017921 2.4589393,15.634552 C4.29358466,8.10903226 10.0181534,2.34709677 17.4000319,0.596989247 C22.6111502,-0.641218638 27.9823834,0.269103943 32.5249968,3.15913978 C37.0843387,6.05763441 40.2632332,10.6006452 41.4756933,15.9492473 C41.6275144,16.6190681 41.2184409,17.2874552 40.5616741,17.4431541 C40.4691757,17.4650179 40.3768882,17.474767 40.2857252,17.474767 Z" id="Fill-1" fill="#CCCCCC" mask="url(#mask-2)"></path>
                <path d="M40.3928435,17.449319 C40.2410224,17.449319 40.088639,17.4202151 39.9441981,17.3616487 L34.0647157,14.9918996 C33.4378914,14.7389964 33.1309457,14.0171326 33.3783578,13.3778495 C33.6259808,12.7385663 34.3351821,12.4237993 34.9620064,12.6777778 L39.7042364,14.5894624 L41.5739553,9.73677419 C41.8199617,9.09612903 42.5267029,8.78272401 43.1557061,9.03311828 C43.7830927,9.28451613 44.0920064,10.0064516 43.8451565,10.6457348 L41.5286901,16.6593548 C41.4100447,16.967957 41.1764089,17.2146237 40.8790927,17.3460215 C40.7242492,17.4151254 40.5586518,17.449319 40.3928435,17.449319 Z" id="Fill-3" fill="#CCCCCC" mask="url(#mask-2)"></path>
                <path d="M21.959655,40 C18.2602109,40 14.6244473,38.9473835 11.405278,36.8996416 C6.84586581,34.001147 3.66704153,29.4581362 2.45458147,24.1092473 C2.30276038,23.4397133 2.71211502,22.7713262 3.36860064,22.6156272 C4.02234505,22.4602151 4.67960383,22.8782796 4.83198722,23.5478136 C5.89810863,28.2487455 8.69070288,32.2401434 12.6965304,34.7874552 C16.6856294,37.3250179 21.4033994,38.1235842 25.9775719,37.0382796 C32.4618786,35.5009319 37.4907412,30.4365591 39.1023642,23.8239427 C39.2652204,23.1566308 39.9247284,22.752043 40.5811438,22.916129 C41.2354505,23.0824373 41.6335591,23.7569892 41.4712652,24.4243011 C39.6369712,31.9497491 33.9121214,37.7116846 26.5302428,39.4617921 C25.0121725,39.8224373 23.4803962,40 21.959655,40 Z" id="Fill-4" fill="#CCCCCC" mask="url(#mask-2)"></path>
                <path d="M1.22012141,31.1122581 C1.07160383,31.1122581 0.920907348,31.0842294 0.77428754,31.0259498 C0.146900958,30.7742652 -0.161731629,30.0523297 0.0848370607,29.4130466 L2.40158466,23.3997133 C2.52015974,23.0908244 2.75358466,22.8441577 3.05090096,22.7128315 C3.34828754,22.5803584 3.68489457,22.5744803 3.98579553,22.6971326 L9.86548882,25.0669534 C10.4923131,25.3197849 10.7993291,26.0416487 10.5519169,26.6809319 C10.3040128,27.3202151 9.59453035,27.6363441 8.96826837,27.3810036 L4.22603834,25.469319 L2.3562492,30.3222939 C2.16738658,30.81319 1.70749521,31.1122581 1.22012141,31.1122581 Z" id="Fill-5" fill="#CCCCCC" mask="url(#mask-2)"></path>
            </g>
        </g>
    </g>
</svg>