<?xml version="1.0" encoding="UTF-8"?>
<svg width="30px" height="30px" viewBox="0 0 30 30" version="1.1" xmlns="http://www.w3.org/2000/svg" xmlns:xlink="http://www.w3.org/1999/xlink">
    <!-- Generator: Sketch 46.2 (44496) - http://www.bohemiancoding.com/sketch -->
    <title>icon_duoxuan_yixuanze</title>
    <desc>Created with Sketch.</desc>
    <defs></defs>
    <g id="Page-1" stroke="none" stroke-width="1" fill="none" fill-rule="evenodd">
        <g id="开发票" transform="translate(-40.000000, -379.000000)" fill="#E14E2E">
            <g id="Group-2-Copy" transform="translate(0.000000, 334.000000)">
                <g id="对号" transform="translate(35.000000, 40.000000)">
                    <g id="多选_已选择">
                        <path d="M33.8208586,14.1611309 C33.0652984,12.3748272 31.9839581,10.7705969 30.6066597,9.39346597 C29.2294031,8.01616754 27.6253403,6.93470157 25.8388272,6.17914136 C23.9890262,5.39673298 22.024712,5 20,5 C17.9754555,5 16.0108063,5.39656545 14.1610052,6.17914136 C12.3746597,6.93470157 10.7705969,8.01616754 9.39334031,9.39346597 C8.01604188,10.7705969 6.93457592,12.3749948 6.17914136,14.1611309 C5.39677487,16.0109319 5,17.9754555 5,20 C5,22.0246702 5.39677487,23.9891937 6.17914136,25.8389948 C6.93457592,27.6252984 8.01604188,29.2293613 9.39334031,30.6066597 C10.7705969,31.9839581 12.3748272,33.0654241 14.1610052,33.8208168 C16.0108063,34.6032251 17.9754555,35 20,35 C22.024712,35 23.9890262,34.6033927 25.8388272,33.8208168 C27.6253403,33.0654241 29.2294031,31.9839581 30.6066597,30.6066597 C31.9837906,29.2293613 33.0652984,27.6252984 33.8208586,25.8389948 C34.6032251,23.9891937 35,22.0246702 35,20 C35,17.9754555 34.6032251,16.0109319 33.8208586,14.1611309 Z M27.9358743,15.9772565 L18.836733,25.3684188 C18.6601885,25.5507016 18.4231204,25.6510157 18.1691728,25.6510157 C17.9357068,25.6510157 17.712377,25.5639372 17.5403979,25.4059058 L12.0337173,20.3445445 C11.6565864,19.9978639 11.6317068,19.4086702 11.9783874,19.0314136 C12.1545969,18.8401257 12.4028063,18.7311832 12.6629529,18.7308482 C12.8957906,18.7306806 13.1202513,18.8182199 13.2917277,18.9759162 L18.1318534,23.424712 L26.6009634,14.6837277 C26.7776335,14.501445 27.0148691,14.4010052 27.2688168,14.4010052 C27.5114555,14.4010052 27.7409843,14.4939476 27.915267,14.6629529 C28.2833927,15.0196021 28.2925236,15.6092565 27.9358743,15.9772565 Z" id="Fill-1"></path>
                    </g>
                </g>
            </g>
        </g>
    </g>
</svg>