<?xml version="1.0" encoding="UTF-8"?>
<svg width="104px" height="113px" viewBox="0 0 104 113" version="1.1" xmlns="http://www.w3.org/2000/svg" xmlns:xlink="http://www.w3.org/1999/xlink">
    <!-- Generator: Sketch 46.2 (44496) - http://www.bohemiancoding.com/sketch -->
    <title>icon_订单</title>
    <desc>Created with Sketch.</desc>
    <defs></defs>
    <g id="Page-1" stroke="none" stroke-width="1" fill="none" fill-rule="evenodd">
        <g id="开发票（无订单页面）" transform="translate(-323.000000, -378.000000)">
            <g id="icon_订单" transform="translate(325.000000, 378.000000)">
                <path d="M69.0309713,4 L92,4 L92,4 C96.418278,4 100,7.581722 100,12 L100,103 L100,103 C100,107.418278 96.418278,111 92,111 L8,111 L8,111 C3.581722,111 0,107.418278 0,103 L0,12 L0,12 C0,7.581722 3.581722,4 8,4 L8,4 L31.3046532,4" id="Rectangle-4" stroke="#999999" stroke-width="3" stroke-linecap="round" stroke-linejoin="round"></path>
                <rect id="Rectangle-34" fill="#999999" x="40" y="0" width="20" height="6" rx="3"></rect>
                <g id="Group-4" transform="translate(20.000000, 37.000000)" fill="#999999">
                    <g id="Group-2">
                        <rect id="Rectangle-36" x="0" y="0" width="60" height="4" rx="2"></rect>
                    </g>
                    <g id="Group-2-Copy" transform="translate(0.000000, 19.000000)">
                        <rect id="Rectangle-36" x="0" y="0" width="60" height="4" rx="2"></rect>
                    </g>
                    <g id="Group-2-Copy-2" transform="translate(0.000000, 38.000000)">
                        <rect id="Rectangle-36" x="0" y="0" width="60" height="4" rx="2"></rect>
                    </g>
                </g>
            </g>
        </g>
    </g>
</svg>