<?xml version="1.0" encoding="UTF-8"?>
<svg width="24px" height="32px" viewBox="0 0 24 32" version="1.1" xmlns="http://www.w3.org/2000/svg" xmlns:xlink="http://www.w3.org/1999/xlink">
    <!-- Generator: Sketch 46.2 (44496) - http://www.bohemiancoding.com/sketch -->
    <title>icon_location</title>
    <desc>Created with Sketch.</desc>
    <defs></defs>
    <g id="Page-1" stroke="none" stroke-width="1" fill="none" fill-rule="evenodd">
        <g id="交易信息" transform="translate(-110.000000, -216.000000)" fill="#CCCCCC">
            <g id="Group-2" transform="translate(0.000000, 148.000000)">
                <g id="icon_location" transform="translate(110.000000, 68.000000)">
                    <path d="M11.9896522,4.92571117 C9.053,4.92571117 6.66404348,7.3213515 6.66404348,10.2660054 C6.66404348,13.2114877 9.053,15.6079564 11.9896522,15.6079564 C14.9263043,15.6079564 17.3153913,13.2114877 17.3153913,10.2660054 C17.3162174,7.3213515 14.9273043,4.92571117 11.9896522,4.92571117 Z M11.9896522,14.2687084 C9.7893913,14.2687084 7.99965217,12.4730899 7.99965217,10.2660054 C7.99965217,8.05974932 9.7893913,6.26513351 11.9896522,6.26513351 C14.1900435,6.26513351 15.9797826,8.05974932 15.9797826,10.2660054 C15.9806522,12.4730899 14.190913,14.2687084 11.9896522,14.2687084 Z" id="Fill-1"></path>
                    <path d="M11.9896522,0 C5.37908696,0 0,5.05094278 0,11.2599019 C0,12.4036185 0.18173913,13.5313351 0.539565217,14.610703 C0.543130435,14.6241744 0.548565217,14.6367738 0.553826087,14.6491989 C0.821826087,15.4492425 1.18782609,16.2224305 1.65082609,16.9634005 L11.4083043,31.6948229 C11.5329565,31.8814605 11.7413478,31.9938965 11.9648261,31.9938965 L11.9656957,31.9938965 C12.1883478,31.9938965 12.3976087,31.8823324 12.5212174,31.6965232 L22.317913,16.9812752 C22.7817391,16.247455 23.1540435,15.4634114 23.4264783,14.6491989 C23.4317391,14.6367738 23.4363043,14.6241744 23.4407391,14.610703 C23.7985652,13.5313351 23.9803043,12.4036185 23.9803043,11.2599019 C23.9803043,5.05094278 18.6012174,0 11.9896522,0 Z M22.1851304,14.1527629 C22.1798696,14.165188 22.1754348,14.1777875 22.1708696,14.1902125 C21.9313913,14.9134823 21.6010435,15.6117275 21.1976957,16.25103 L11.9665217,30.1161417 L2.77378261,16.2384305 C2.3693913,15.5902779 2.04534783,14.9008828 1.80943478,14.1875095 C1.49508696,13.2464305 1.3366087,12.2615804 1.3366087,11.2599019 C1.3366087,5.7893406 6.11547826,1.33924796 11.9906522,1.33924796 C17.8656522,1.33924796 22.6446957,5.7893406 22.6446957,11.2599019 C22.6446957,12.247455 22.4896522,13.2197057 22.1851304,14.1527629 Z" id="Fill-2"></path>
                </g>
            </g>
        </g>
    </g>
</svg>