<?xml version="1.0" encoding="UTF-8"?>
<svg width="30px" height="32px" viewBox="0 0 30 32" version="1.1" xmlns="http://www.w3.org/2000/svg" xmlns:xlink="http://www.w3.org/1999/xlink">
    <!-- Generator: Sketch 46.2 (44496) - http://www.bohemiancoding.com/sketch -->
    <title>icon_classification(1)</title>
    <desc>Created with Sketch.</desc>
    <defs></defs>
    <g id="Page-1" stroke="none" stroke-width="1" fill="none" fill-rule="evenodd">
        <g id="开具发票_企业抬头" transform="translate(-441.000000, -274.000000)" fill="#E6E6E6">
            <path d="M467.612788,305.91122 L444.379425,305.91122 C442.51323,305.91122 441,304.387209 441,302.50732 L441,278.254886 C441,276.375175 442.513053,274.850986 444.379425,274.850986 L448.37969,274.850986 C448.255088,275.190462 448.191283,275.54946 448.191283,275.911398 C448.191283,277.393649 449.254115,278.673961 450.583097,278.673961 L461.48,278.673961 C462.74208,278.673961 463.805398,277.393649 463.805398,275.911398 C463.805575,275.54946 463.741814,275.190462 463.617035,274.850986 L467.612788,274.850986 C469.478982,274.850986 470.992212,276.375175 470.992212,278.254886 L470.992212,302.507499 C470.992035,304.387209 469.478982,305.91122 467.612788,305.91122 Z M463.515221,282.953894 L448.519204,282.953894 C447.967124,282.953894 447.499425,283.420613 447.499425,283.972011 C447.499425,284.523855 447.967124,284.990618 448.519204,284.990618 L463.515221,284.990618 C464.067257,284.990618 464.535,284.523855 464.535,283.972011 C464.535,283.420613 464.067257,282.953894 463.515221,282.953894 Z M463.473053,288.47024 L448.519204,288.47024 C447.967124,288.47024 447.499425,288.937003 447.499425,289.488891 C447.499425,290.040423 447.967124,290.507142 448.519204,290.507142 L463.515221,290.507142 C464.067257,290.507142 464.535,290.040245 464.535,289.488891 C464.492301,288.894886 464.025088,288.47024 463.473053,288.47024 Z M463.473053,294.453526 L448.519204,294.453526 C447.967124,294.453526 447.499425,294.920646 447.499425,295.472 C447.499425,296.023889 447.967124,296.490607 448.519204,296.490607 L463.515221,296.490607 C464.067257,296.490607 464.535,296.023889 464.535,295.472 C464.492301,294.878173 464.025088,294.453526 463.473053,294.453526 Z M459.522035,277.479666 L452.554912,277.479666 C451.705531,277.479666 451.025929,276.673426 451.025929,275.7399 C451.025929,274.806418 451.705531,274 452.554912,274 L459.479336,274 C460.329204,274 461.008982,274.80624 461.008982,275.7399 C461.008982,276.673426 460.329204,277.479666 459.522035,277.479666 Z" id="icon_classification(1)"></path>
        </g>
    </g>
</svg>