<?xml version="1.0" encoding="UTF-8"?>
<svg width="332px" height="329px" viewBox="0 0 332 329" version="1.1" xmlns="http://www.w3.org/2000/svg" xmlns:xlink="http://www.w3.org/1999/xlink">
    <!-- Generator: Sketch 46.2 (44496) - http://www.bohemiancoding.com/sketch -->
    <title>icon_to succeed</title>
    <desc>Created with Sketch.</desc>
    <defs>
        <circle id="path-1" cx="155.5" cy="155.5" r="139.5"></circle>
        <filter x="-14.8%" y="-11.2%" width="129.6%" height="129.6%" filterUnits="objectBoundingBox" id="filter-2">
            <feMorphology radius="1.8" operator="dilate" in="SourceAlpha" result="shadowSpreadOuter1"></feMorphology>
            <feOffset dx="0" dy="10" in="shadowSpreadOuter1" result="shadowOffsetOuter1"></feOffset>
            <feMorphology radius="1.8" operator="erode" in="SourceAlpha" result="shadowInner"></feMorphology>
            <feOffset dx="0" dy="10" in="shadowInner" result="shadowInner"></feOffset>
            <feComposite in="shadowOffsetOuter1" in2="shadowInner" operator="out" result="shadowOffsetOuter1"></feComposite>
            <feGaussianBlur stdDeviation="11.5" in="shadowOffsetOuter1" result="shadowBlurOuter1"></feGaussianBlur>
            <feColorMatrix values="0 0 0 0 0.882352941   0 0 0 0 0.305882353   0 0 0 0 0.180392157  0 0 0 0.144248188 0" type="matrix" in="shadowBlurOuter1"></feColorMatrix>
        </filter>
    </defs>
    <g id="Page-1" stroke="none" stroke-width="1" fill="none" fill-rule="evenodd">
        <g id="领取积分" transform="translate(-208.000000, -249.000000)">
            <g id="icon_to-succeed" transform="translate(208.000000, 248.000000)">
                <g id="Group-7" transform="translate(12.000000, 0.000000)">
                    <g id="Group-3">
                        <g id="Oval-4" stroke-linecap="round" stroke-linejoin="round">
                            <use fill="black" fill-opacity="1" filter="url(#filter-2)" xlink:href="#path-1"></use>
                            <use stroke="#E14E2E" stroke-width="3.6" xlink:href="#path-1"></use>
                        </g>
                        <path d="M137.237458,166.798715 C132.900209,165.240103 128.906266,163.439659 129.060971,160.659993 C129.060971,158.948624 131.145838,157.108076 135.720169,157.108076 C139.73244,157.108076 142.745535,158.242473 144.185964,158.918798 L146.667742,153.394936 C144.745463,152.491087 141.744783,151.488287 137.96723,151.170277 L137.96723,143.353237 L132.021841,143.353237 L132.021841,151.41352 C125.9586,152.622684 123.116369,156.723159 123.121888,160.482246 C122.687729,168.015133 130.86934,170.955214 135.266697,172.534381 C141.272786,174.692134 144.10201,176.071386 144.10201,179.378448 C144.10201,184.841045 137.690141,185.65582 133.86864,185.65582 C130.626148,185.65582 127.216536,184.739476 125.792465,183.855376 L122.703889,189.050143 C124.902469,190.416901 128.48137,191.395316 132.021841,191.658309 L132.021841,199.397358 L137.96723,199.397358 L137.96723,191.45134 C146.787171,190.153908 150.046611,184.610297 150.046611,179.378448 C150.046611,171.401597 142.944976,168.850262 137.237458,166.798715 Z M172.751148,95 C150.956511,95 127.500523,99.7838536 127.500523,110.285438 L127.500523,126.300405 C127.500523,126.940455 127.603002,127.69457 127.883244,128.511763 C108.066265,132.265208 93,150.040515 93,171.374794 C93,195.429891 112.137855,215 135.66085,215 C151.897155,215 166.037359,205.671506 173.243838,191.984985 C194.896778,191.914047 218,187.128581 218,176.7066 L218,110.285438 C218,99.7838536 194.544209,95 172.751148,95 Z M135.66085,208.920326 C115.415821,208.920326 98.9453894,192.077889 98.9453894,171.374794 C98.9453894,150.6719 115.415821,133.830269 135.66085,133.830269 C155.906469,133.830269 172.376901,150.6719 172.376901,171.374794 C172.376901,192.077889 155.906469,208.920326 135.66085,208.920326 Z M212.054611,176.7066 C212.054611,179.34701 199.725929,185.371667 175.851942,185.863595 C177.1152,182.212526 177.910598,178.347233 178.17606,174.32616 C191.617236,173.839673 204.735995,171.537023 212.054611,167.238044 L212.054611,176.7066 Z M212.054611,159.149345 C212.054611,161.926794 200.103132,167.420628 178.166797,168.239433 C177.909022,164.559142 177.218467,161.006419 176.119966,157.633256 C190.153946,157.317664 204.32726,155.019649 212.054611,150.487704 L212.054611,159.149345 Z M212.054611,142.39437 C212.054611,145.115794 198.969945,151.438711 173.631881,151.586632 C171.764191,147.85596 169.391593,144.442693 166.59942,141.427644 C168.632456,141.511076 170.674164,141.585843 172.751148,141.585843 C187.837515,141.585843 203.707456,139.288836 212.054611,134.39394 L212.054611,142.39437 Z M212.054611,126.300405 C212.054611,129.053469 198.682017,135.506169 172.751148,135.506169 C167.964369,135.506169 163.292287,135.257485 158.827924,134.795383 C152.149018,130.356947 144.202716,127.750595 135.66085,127.750595 C135.275172,127.750595 134.901713,127.799365 134.5184,127.809642 C133.75473,127.133317 133.445912,126.591007 133.445912,126.300405 L133.445912,118.390461 C133.47843,118.409404 133.516071,118.426736 133.548392,118.445679 C133.644565,118.500696 133.751577,118.551884 133.848538,118.607102 C134.451394,118.944661 135.093468,119.268313 135.766285,119.580882 C135.971047,119.676003 136.175809,119.770519 136.387469,119.863423 C137.170452,120.208236 137.981026,120.541966 138.843233,120.853728 C138.853284,120.857759 138.861758,120.861588 138.871021,120.864812 C139.747024,121.18121 140.673872,121.474835 141.623187,121.758182 C141.87643,121.833755 142.133417,121.907917 142.39139,121.981072 C143.222065,122.217261 144.074222,122.442367 144.951013,122.654979 C145.106506,122.691858 145.255102,122.732768 145.412171,122.769849 C146.433025,123.009868 147.486199,123.231145 148.55849,123.439726 C148.830258,123.49172 149.10577,123.541295 149.380691,123.591677 C150.269898,123.756123 151.1729,123.910493 152.091275,124.053779 C152.342941,124.093077 152.590862,124.135599 152.844893,124.17268 C153.967241,124.340351 155.106735,124.492302 156.261403,124.628535 C156.514646,124.658361 156.769465,124.684358 157.023496,124.712572 C157.987395,124.82059 158.95898,124.91813 159.938053,125.004786 C160.239186,125.031589 160.538544,125.059803 160.840268,125.084188 C162.028242,125.181929 163.22134,125.267578 164.422321,125.335291 C164.610135,125.345569 164.797948,125.352622 164.985959,125.362094 C166.029673,125.417313 167.07595,125.459835 168.123015,125.492079 C168.452329,125.502156 168.779672,125.512433 169.108986,125.520293 C170.325339,125.550321 171.540904,125.569869 172.751148,125.569869 C173.961195,125.569869 175.176169,125.550321 176.392325,125.520293 C176.721836,125.512433 177.04977,125.502962 177.379281,125.492079 C178.425558,125.459835 179.471638,125.417313 180.514761,125.3629 C180.702772,125.352622 180.891373,125.345569 181.079187,125.335291 C182.27938,125.267578 183.473266,125.181929 184.660452,125.084188 C184.962964,125.059803 185.262322,125.031589 185.563455,125.004786 C186.54174,124.91813 187.511748,124.82059 188.47407,124.712572 C188.729678,124.684358 188.986862,124.659167 189.240893,124.628535 C190.394773,124.492302 191.53269,124.340351 192.653462,124.173486 C192.909857,124.135599 193.159947,124.093077 193.414175,124.052973 C194.329396,123.910493 195.230033,123.756123 196.116876,123.592483 C196.393373,123.541295 196.669674,123.492526 196.943018,123.43892 C198.015309,123.231145 199.066907,123.009868 200.086972,122.770655 C200.245618,122.732768 200.396381,122.691052 200.553451,122.653366 C201.428863,122.442367 202.278654,122.217261 203.107753,121.981072 C203.366514,121.907917 203.623501,121.833755 203.877532,121.758182 C204.826059,121.474835 205.752908,121.18121 206.628122,120.864812 C206.63975,120.860782 206.649801,120.856146 206.662019,120.852116 C207.52265,120.540353 208.331844,120.20743 209.113251,119.863423 C209.324122,119.770519 209.529673,119.676003 209.734435,119.580882 C210.407252,119.268313 211.049326,118.944661 211.651984,118.607102 C211.749143,118.551884 211.856155,118.500696 211.95154,118.445679 C211.984649,118.426736 212.021699,118.409404 212.054019,118.390461 L212.054019,126.300405 L212.054611,126.300405 Z M172.751148,119.490195 C146.818703,119.490195 133.445912,113.0383 133.445912,110.285438 C133.445912,107.53177 146.818703,101.079674 172.751148,101.079674 C198.682017,101.079674 212.054611,107.53177 212.054611,110.285438 C212.054611,113.0383 198.682017,119.490195 172.751148,119.490195 Z" id="a74dce8ca26c7ff4ea19efc51d8ba5b0" fill="#E14E2E"></path>
                    </g>
                </g>
                <path d="M10.0416306,17.2461353 C15.7663774,21.8047447 21.1818896,23.9862189 26.2881672,23.7905578 C31.3944447,23.5948968 37.3122658,21.3452544 44.0416306,17.0416306 C40.0234843,23.6397509 38.0144112,29.7916316 38.0144112,35.4972726 C38.0144112,41.2029137 39.9831121,46.3843663 43.9205138,51.0416306 C39.4545345,47.3315828 34.2473615,45.4765589 28.2989948,45.4765589 C22.3506281,45.4765589 16.3028596,47.2747516 10.1556893,50.8711371 C14.8693766,43.0188878 17.2262203,37.0076463 17.2262203,32.8374127 C17.2262203,28.667179 14.831357,23.4700865 10.0416306,17.2461353 Z" id="Rectangle-46" fill="#E47760" transform="translate(27.041631, 34.041631) rotate(45.000000) translate(-27.041631, -34.041631) "></path>
                <path d="M240.520815,86.6230677 C243.383189,88.9023724 246.090945,89.9931094 248.644084,89.8952789 C251.197222,89.7974484 254.156133,88.6726272 257.520815,86.5208153 C255.511742,89.8198754 254.507206,92.8958158 254.507206,95.7486363 C254.507206,98.6014568 255.491556,101.192183 257.460257,103.520815 C255.227267,101.665791 252.623681,100.738279 249.649497,100.738279 C246.675314,100.738279 243.65143,101.637376 240.577845,103.435569 C242.934688,99.5094439 244.11311,96.5038232 244.11311,94.4187063 C244.11311,92.3335895 242.915679,89.7350433 240.520815,86.6230677 Z" id="Rectangle-46-Copy" fill="#E14E2E" transform="translate(249.020815, 95.020815) rotate(45.000000) translate(-249.020815, -95.020815) "></path>
                <path d="M278.520815,277.623068 C281.383189,279.902372 284.090945,280.993109 286.644084,280.895279 C289.197222,280.797448 292.156133,279.672627 295.520815,277.520815 C293.511742,280.819875 292.507206,283.895816 292.507206,286.748636 C292.507206,289.601457 293.491556,292.192183 295.460257,294.520815 C293.227267,292.665791 290.623681,291.738279 287.649497,291.738279 C284.675314,291.738279 281.65143,292.637376 278.577845,294.435569 C280.934688,290.509444 282.11311,287.503823 282.11311,285.418706 C282.11311,283.333589 280.915679,280.735043 278.520815,277.623068 Z" id="Rectangle-46-Copy-2" fill="#E14E2E" transform="translate(287.020815, 286.020815) rotate(45.000000) translate(-287.020815, -286.020815) "></path>
                <path d="M3.52081528,67.6230677 C6.38318872,69.9023724 9.09094482,70.9931094 11.6440836,70.8952789 C14.1972223,70.7974484 17.1561329,69.6726272 20.5208153,67.5208153 C18.5117422,70.8198754 17.5072056,73.8958158 17.5072056,76.7486363 C17.5072056,79.6014568 18.491556,82.1921832 20.4602569,84.5208153 C18.2272672,82.6657914 15.6236807,81.7382794 12.6494974,81.7382794 C9.67531405,81.7382794 6.6514298,82.6373758 3.57784465,84.4355685 C5.93468831,80.5094439 7.11311014,77.5038232 7.11311014,75.4187063 C7.11311014,73.3335895 5.91567852,70.7350433 3.52081528,67.6230677 Z" id="Rectangle-46-Copy-3" fill="#FFEAE5" transform="translate(12.020815, 76.020815) rotate(45.000000) translate(-12.020815, -76.020815) "></path>
                <ellipse id="Oval-12" fill="#FADCD6" cx="167.5" cy="223" rx="60.5" ry="6"></ellipse>
            </g>
        </g>
    </g>
</svg>