<?xml version="1.0" encoding="UTF-8"?>
<svg width="14px" height="14px" viewBox="0 0 14 14" version="1.1" xmlns="http://www.w3.org/2000/svg" xmlns:xlink="http://www.w3.org/1999/xlink">
    <!-- Generator: Sketch 46.2 (44496) - http://www.bohemiancoding.com/sketch -->
    <title>icon_角标（激活）</title>
    <desc>Created with Sketch.</desc>
    <defs></defs>
    <g id="Page-1" stroke="none" stroke-width="1" fill="none" fill-rule="evenodd">
        <g id="开发票_企业" transform="translate(-714.000000, -175.000000)">
            <g id="Group-20" transform="translate(544.000000, 131.000000)">
                <g id="Group-3" transform="translate(114.000000, 44.000000)">
                    <g id="Group-19-Copy-2">
                        <g id="Group-18" transform="translate(56.000000, 0.000000)">
                            <g id="icon_角标（激活）">
                                <path d="M2.00239897,0 L13,0 L13,-5.55111512e-16 C13.5522847,-6.56564575e-16 14,0.44771525 14,1 C14,1.26521626 13.8946433,1.51956997 13.7071073,1.70710631 L1.70950622,13.7047234 L1.70950622,13.7047234 C1.31898219,14.095248 0.685817214,14.0952484 0.295292661,13.7047244 C0.107755993,13.5171879 0.00239896867,13.2628338 0.00239896867,12.9976171 L0.00239896867,2 L0.00239896867,2 C0.00239896867,0.8954305 0.897829469,-9.07316899e-16 2.00239897,-1.11022302e-15 Z" id="Triangle-2" fill="#E14E2E" transform="translate(7.001199, 6.998809) scale(-1, 1) translate(-7.001199, -6.998809) "></path>
                                <path d="M6.53569483,4.35181913 C6.24579476,4.05596304 5.77094557,4.05113474 5.47508949,4.34103481 C5.1792334,4.63093488 5.1744051,5.10578407 5.46430517,5.40164016 L7.544831,7.52491051 C7.83890847,7.82502983 8.32214319,7.82502983 8.61622066,7.52491051 L12.5356948,3.52491051 C12.8255949,3.22905443 12.8207666,2.75420524 12.5249105,2.46430517 C12.2290544,2.1744051 11.7542052,2.1792334 11.4643052,2.47508949 L8.08052583,5.92838877 L6.53569483,4.35181913 Z" id="Path-3" fill="#FFFFFF" fill-rule="nonzero"></path>
                            </g>
                        </g>
                    </g>
                </g>
            </g>
        </g>
    </g>
</svg>