<?xml version="1.0" encoding="UTF-8"?>
<svg width="30px" height="30px" viewBox="0 0 30 30" version="1.1" xmlns="http://www.w3.org/2000/svg" xmlns:xlink="http://www.w3.org/1999/xlink">
    <!-- Generator: Sketch 46.2 (44496) - http://www.bohemiancoding.com/sketch -->
    <title>icon_yixuanze</title>
    <desc>Created with Sketch.</desc>
    <defs></defs>
    <g id="Page-1" stroke="none" stroke-width="1" fill="none" fill-rule="evenodd">
        <g id="开具发票_个人抬头" transform="translate(-466.000000, -373.000000)" fill="#E14E2E">
            <g id="Group-8" transform="translate(250.000000, 372.000000)">
                <g id="Group-6" transform="translate(216.000000, 1.000000)">
                    <g id="Group-4">
                        <g id="icon_yixuanze">
                            <path d="M28.8208586,9.16113089 C28.0652984,7.37482723 26.9839581,5.77059686 25.6066597,4.39346597 C24.2294031,3.01616754 22.6253403,1.93470157 20.8388272,1.17914136 C18.9890262,0.396732984 17.024712,0 15,0 C12.9754555,0 11.0108063,0.396565445 9.16100524,1.17914136 C7.37465969,1.93470157 5.77059686,3.01616754 4.39334031,4.39346597 C3.01604188,5.77059686 1.93457592,7.37499476 1.17914136,9.16113089 C0.396774869,11.0109319 0,12.9754555 0,15 C0,17.0246702 0.396774869,18.9891937 1.17914136,20.8389948 C1.93457592,22.6252984 3.01604188,24.2293613 4.39334031,25.6066597 C5.77059686,26.9839581 7.37482723,28.0654241 9.16100524,28.8208168 C11.0108063,29.6032251 12.9754555,30 15,30 C17.024712,30 18.9890262,29.6033927 20.8388272,28.8208168 C22.6253403,28.0654241 24.2294031,26.9839581 25.6066597,25.6066597 C26.9837906,24.2293613 28.0652984,22.6252984 28.8208586,20.8389948 C29.6032251,18.9891937 30,17.0246702 30,15 C30,12.9754555 29.6032251,11.0109319 28.8208586,9.16113089 Z M22.9358743,10.9772565 L13.836733,20.3684188 C13.6601885,20.5507016 13.4231204,20.6510157 13.1691728,20.6510157 C12.9357068,20.6510157 12.712377,20.5639372 12.5403979,20.4059058 L7.03371728,15.3445445 C6.65658639,14.9978639 6.63170681,14.4086702 6.97838743,14.0314136 C7.15459686,13.8401257 7.40280628,13.7311832 7.66295288,13.7308482 C7.89579058,13.7306806 8.12025131,13.8182199 8.29172775,13.9759162 L13.1318534,18.424712 L21.6009634,9.68372775 C21.7776335,9.50144503 22.0148691,9.40100524 22.2688168,9.40100524 C22.5114555,9.40100524 22.7409843,9.49394764 22.915267,9.66295288 C23.2833927,10.0196021 23.2925236,10.6092565 22.9358743,10.9772565 Z" id="Fill-1"></path>
                        </g>
                    </g>
                </g>
            </g>
        </g>
    </g>
</svg>