<?xml version="1.0" encoding="UTF-8"?>
<svg width="24px" height="24px" viewBox="0 0 24 24" version="1.1" xmlns="http://www.w3.org/2000/svg" xmlns:xlink="http://www.w3.org/1999/xlink">
    <!-- Generator: Sketch 46.2 (44496) - http://www.bohemiancoding.com/sketch -->
    <title>icon_time</title>
    <desc>Created with Sketch.</desc>
    <defs>
        <polygon id="path-1" points="23.9985736 23.9999643 23.9985736 0.00124814264 0 0.00124814264 0 23.9999643"></polygon>
    </defs>
    <g id="Page-1" stroke="none" stroke-width="1" fill="none" fill-rule="evenodd">
        <g id="交易信息" transform="translate(-107.000000, -168.000000)">
            <g id="Group-2" transform="translate(0.000000, 148.000000)">
                <g id="icon_time" transform="translate(107.000000, 20.000000)">
                    <mask id="mask-2" fill="white">
                        <use xlink:href="#path-1"></use>
                    </mask>
                    <g id="Clip-2"></g>
                    <path d="M11.9994294,0.00124814264 C5.38302526,0.00124814264 0,5.3842734 0,12.0006776 C0,18.6169391 5.38302526,23.9999643 11.9994294,23.9999643 C18.6158692,23.9999643 23.9988945,18.6169391 23.9988945,12.0006776 C23.9988945,5.3842734 18.6158692,0.00124814264 11.9994294,0.00124814264 Z M11.9994294,22.4999822 C6.20993759,22.4999822 1.49987519,17.7900624 1.49987519,12.0005349 C1.49987519,6.21100743 6.20993759,1.50108767 11.9994294,1.50108767 C17.7888143,1.50108767 22.4988767,6.21100743 22.4988767,12.0005349 C22.4988767,17.7900624 17.7888143,22.4999822 11.9994294,22.4999822 Z M17.249153,11.2506865 L12.7493135,11.2506865 L12.7493135,5.25082912 C12.7493135,4.83637444 12.4139911,4.50094502 11.9994294,4.50094502 C11.5848678,4.50094502 11.2494383,4.83637444 11.2494383,5.25082912 L11.2494383,12.0005349 C11.2494383,12.4150966 11.5848678,12.750526 11.9994294,12.750526 L17.249153,12.750526 C17.6635721,12.750526 17.9991798,12.4150966 17.9991798,12.0005349 C17.9991798,11.5859733 17.6635721,11.2506865 17.249153,11.2506865 Z" id="Fill-1" fill="#CCCCCC" mask="url(#mask-2)"></path>
                </g>
            </g>
        </g>
    </g>
</svg>