<?xml version="1.0" encoding="UTF-8"?>
<svg width="30px" height="32px" viewBox="0 0 30 32" version="1.1" xmlns="http://www.w3.org/2000/svg" xmlns:xlink="http://www.w3.org/1999/xlink">
    <!-- Generator: Sketch 46.2 (44496) - http://www.bohemiancoding.com/sketch -->
    <title>icon_classification(2)</title>
    <desc>Created with Sketch.</desc>
    <defs></defs>
    <g id="Page-1" stroke="none" stroke-width="1" fill="none" fill-rule="evenodd">
        <path d="M26.6127876,31.9112201 L3.37942478,31.9112201 C1.51323009,31.9112201 0,30.3872089 0,28.5073203 L0,4.25488579 C0,2.37517549 1.5130531,0.850986072 3.37942478,0.850986072 L7.37969027,0.850986072 C7.2550885,1.1904624 7.19128319,1.54945961 7.19128319,1.91139833 C7.19128319,3.39364903 8.25411504,4.673961 9.58309735,4.673961 L20.48,4.673961 C21.7420796,4.673961 22.8053982,3.39364903 22.8053982,1.91139833 C22.8055752,1.54945961 22.7418142,1.1904624 22.6170354,0.850986072 L26.6127876,0.850986072 C28.4789823,0.850986072 29.9922124,2.37517549 29.9922124,4.25488579 L29.9922124,28.5074986 C29.9920354,30.3872089 28.4789823,31.9112201 26.6127876,31.9112201 Z M22.5152212,8.95389415 L7.51920354,8.95389415 C6.96712389,8.95389415 6.49942478,9.42061281 6.49942478,9.97201114 C6.49942478,10.5238552 6.96712389,10.9906184 7.51920354,10.9906184 L22.5152212,10.9906184 C23.0672566,10.9906184 23.535,10.5238552 23.535,9.97201114 C23.535,9.42061281 23.0672566,8.95389415 22.5152212,8.95389415 Z M22.4730531,14.4702396 L7.51920354,14.4702396 C6.96712389,14.4702396 6.49942478,14.9370028 6.49942478,15.4888914 C6.49942478,16.0404234 6.96712389,16.5071421 7.51920354,16.5071421 L22.5152212,16.5071421 C23.0672566,16.5071421 23.535,16.0402451 23.535,15.4888914 C23.4923009,14.8948858 23.0250885,14.4702396 22.4730531,14.4702396 Z M22.4730531,20.4535265 L7.51920354,20.4535265 C6.96712389,20.4535265 6.49942478,20.9206462 6.49942478,21.472 C6.49942478,22.0238886 6.96712389,22.4906072 7.51920354,22.4906072 L22.5152212,22.4906072 C23.0672566,22.4906072 23.535,22.0238886 23.535,21.472 C23.4923009,20.8781727 23.0250885,20.4535265 22.4730531,20.4535265 Z M18.5220354,3.47966574 L11.5549115,3.47966574 C10.705531,3.47966574 10.0259292,2.67342618 10.0259292,1.73989972 C10.0259292,0.806417827 10.705531,1.70530257e-13 11.5549115,1.70530257e-13 L18.4793363,1.70530257e-13 C19.3292035,1.70530257e-13 20.0089823,0.806239554 20.0089823,1.73989972 C20.0089823,2.67342618 19.3292035,3.47966574 18.5220354,3.47966574 Z" id="icon_classification(2)" fill="#E14E2E"></path>
    </g>
</svg>